<svg width="1440" height="898" viewBox="0 0 1440 898" version="1.1" xmlns="http://www.w3.org/2000/svg" xmlns:xlink="http://www.w3.org/1999/xlink">
<title>Vector</title>
<desc>Created using Figma</desc>
<g id="Canvas" transform="translate(720 -1493)">
<g id="Vector">
<use xlink:href="#path0_fill" transform="matrix(0.984643 -0.174578 -0.174578 -0.984643 -917.314 2487.93)" fill="#6EC5E9"/>
<use xlink:href="#path0_fill" transform="matrix(0.984643 -0.174578 -0.174578 -0.984643 -917.314 2487.93)" fill="url(#paint1_linear)"/>
<use xlink:href="#path1_fill" transform="matrix(0.984643 -0.174578 -0.174578 -0.984643 -917.314 2487.93)" fill="#6EC5E9"/>
<use xlink:href="#path1_fill" transform="matrix(0.984643 -0.174578 -0.174578 -0.984643 -917.314 2487.93)" fill="url(#paint3_linear)"/>
</g>
</g>
<defs>
<linearGradient id="paint1_linear" x1="0" y1="0" x2="1" y2="0" gradientUnits="userSpaceOnUse" gradientTransform="matrix(-1386.63 382.795 -730.92 -2647.67 2058.04 1510.76)">
<stop offset="0" stop-color="#222222" stop-opacity="0.1"/>
<stop offset="1" stop-color="#222222" stop-opacity="0"/>
</linearGradient>
<linearGradient id="paint3_linear" x1="0" y1="0" x2="1" y2="0" gradientUnits="userSpaceOnUse" gradientTransform="matrix(-1386.63 382.795 -730.92 -2647.67 2058.04 1510.76)">
<stop offset="0" stop-color="#222222" stop-opacity="0.1"/>
<stop offset="1" stop-color="#222222" stop-opacity="0"/>
</linearGradient>
<path id="path0_fill" d="M 1170 29.883C 1351.08 -16.3441 1641.3 -9.80694 1711.49 55.5648L 1711.49 410.441L 12.6955 557.526L 0 98.4448C 34.8017 120.858 247.887 174.841 459.056 172.948C 759.702 170.252 988.911 76.1102 1170 29.883Z"/>
<path id="path1_fill" d="M 731.375 741.641C 550.288 787.868 260.078 781.331 189.885 715.959L 189.885 361.083L 1888.68 213.998L 1901.37 673.079C 1866.57 650.666 1653.49 596.683 1442.32 598.576C 1141.67 601.272 912.462 695.414 731.375 741.641Z"/>
</defs>
</svg>
