<svg width="69" height="76" viewBox="0 0 69 76" version="1.1" xmlns="http://www.w3.org/2000/svg" xmlns:xlink="http://www.w3.org/1999/xlink">
<title>Vector</title>
<desc>Created using Figma</desc>
<g id="Canvas" transform="translate(568 -845)">
<g id="Vector">
<use xlink:href="#path0_stroke" transform="translate(-567 846)" fill="#E5E5E5"/>
</g>
</g>
<defs>
<path id="path0_stroke" d="M 67 1C 67.5523 1 68 0.552285 68 0C 68 -0.552285 67.5523 -1 67 -1L 67 1ZM 67.7071 67.7071C 68.0976 67.3166 68.0976 66.6834 67.7071 66.2929L 61.3431 59.9289C 60.9526 59.5384 60.3195 59.5384 59.9289 59.9289C 59.5384 60.3195 59.5384 60.9526 59.9289 61.3431L 65.5858 67L 59.9289 72.6569C 59.5384 73.0474 59.5384 73.6805 59.9289 74.0711C 60.3195 74.4616 60.9526 74.4616 61.3431 74.0711L 67.7071 67.7071ZM 33.5 1L 67 1L 67 -1L 33.5 -1L 33.5 1ZM 33.5 68L 67 68L 67 66L 33.5 66L 33.5 68ZM 33.5 -1C 14.4462 -1 -1 14.4462 -1 33.5L 1 33.5C 1 15.5507 15.5507 1 33.5 1L 33.5 -1ZM 33.5 66C 15.5507 66 1 51.4493 1 33.5L -1 33.5C -1 52.5538 14.4462 68 33.5 68L 33.5 66Z"/>
</defs>
</svg>
