<svg width="22" height="22" viewBox="0 0 22 22" version="1.1" xmlns="http://www.w3.org/2000/svg" xmlns:xlink="http://www.w3.org/1999/xlink">
<title>Vector</title>
<desc>Created using Figma</desc>
<g id="Canvas" transform="translate(567 -4531)">
<g id="Vector">
<use xlink:href="#path0_stroke" transform="translate(-566 4532)" fill="#66B5D5"/>
</g>
</g>
<defs>
<path id="path0_stroke" d="M 14 10L 14.9998 10.0208C 15.0001 10.0069 15.0001 9.99306 14.9998 9.97917L 14 10ZM 6 10L 5.00022 9.97917C 4.99993 9.99306 4.99993 10.0069 5.00022 10.0208L 6 10ZM 10 21C 16.0751 21 21 16.0751 21 10L 19 10C 19 14.9706 14.9706 19 10 19L 10 21ZM 21 10C 21 3.92487 16.0751 -1 10 -1L 10 1C 14.9706 1 19 5.02944 19 10L 21 10ZM 10 -1C 3.92487 -1 -1 3.92487 -1 10L 1 10C 1 5.02944 5.02944 1 10 1L 10 -1ZM -1 10C -1 16.0751 3.92487 21 10 21L 10 19C 5.02944 19 1 14.9706 1 10L -1 10ZM 0 11L 20 11L 20 9L 0 9L 0 11ZM 9.26165 0.674423C 11.6542 3.26983 12.9428 6.49136 13.0002 10.0208L 14.9998 9.97917C 14.9027 6.09271 13.3484 2.20687 10.7383 -0.674423L 9.26165 0.674423ZM 13.0002 9.97917C 12.9428 13.5086 11.6542 16.7302 9.26165 19.3256L 10.7383 20.6744C 13.3484 17.7931 14.9027 13.9073 14.9998 10.0208L 13.0002 9.97917ZM 10.7383 19.3256C 8.34579 16.7302 7.05718 13.5086 6.99978 9.97917L 5.00022 10.0208C 5.09731 13.9073 6.65165 17.7931 9.26165 20.6744L 10.7383 19.3256ZM 6.99978 10.0208C 7.05718 6.49136 8.34579 3.26983 10.7383 0.674423L 9.26165 -0.674423C 6.65165 2.20687 5.09731 6.09271 5.00022 9.97917L 6.99978 10.0208Z"/>
</defs>
</svg>
