<svg width="18" height="20" viewBox="0 0 18 20" version="1.1" xmlns="http://www.w3.org/2000/svg" xmlns:xlink="http://www.w3.org/1999/xlink">
<title>Vector</title>
<desc>Created using Figma</desc>
<g id="Canvas" transform="translate(565 -4463)">
<g id="Vector">
<use xlink:href="#path0_stroke" transform="translate(-564 4464)" fill="#66B5D5"/>
</g>
</g>
<defs>
<path id="path0_stroke" d="M 15 18C 15 18.5523 15.4477 19 16 19C 16.5523 19 17 18.5523 17 18L 15 18ZM -1 18C -1 18.5523 -0.552285 19 0 19C 0.552285 19 1 18.5523 1 18L -1 18ZM 17 18L 17 16L 15 16L 15 18L 17 18ZM 17 16C 17 13.2386 14.7614 11 12 11L 12 13C 13.6569 13 15 14.3431 15 16L 17 16ZM 12 11L 4 11L 4 13L 12 13L 12 11ZM 4 11C 1.23858 11 -1 13.2386 -1 16L 1 16C 1 14.3431 2.34315 13 4 13L 4 11ZM -1 16L -1 18L 1 18L 1 16L -1 16ZM 8 9C 10.7614 9 13 6.76142 13 4L 11 4C 11 5.65685 9.65685 7 8 7L 8 9ZM 13 4C 13 1.23858 10.7614 -1 8 -1L 8 1C 9.65685 1 11 2.34315 11 4L 13 4ZM 8 -1C 5.23858 -1 3 1.23858 3 4L 5 4C 5 2.34315 6.34315 1 8 1L 8 -1ZM 3 4C 3 6.76142 5.23858 9 8 9L 8 7C 6.34315 7 5 5.65685 5 4L 3 4Z"/>
</defs>
</svg>
