<svg width="23" height="23" viewBox="0 0 23 23" version="1.1" xmlns="http://www.w3.org/2000/svg" xmlns:xlink="http://www.w3.org/1999/xlink">
<title>phone-incoming</title>
<desc>Created using Figma</desc>
<g id="Canvas" transform="translate(567 -4600)">
<g id="phone-incoming">
<g id="Shape">
<use xlink:href="#path0_stroke" transform="translate(-552.037 4602)" fill="#66B5D5"/>
</g>
<g id="Shape">
<use xlink:href="#path1_stroke" transform="translate(-552.037 4601)" fill="#66B5D5"/>
</g>
<g id="Shape">
<use xlink:href="#path2_stroke" transform="translate(-566 4602)" fill="#66B5D5"/>
</g>
</g>
</g>
<defs>
<path id="path0_stroke" d="M 1 0C 1 -0.552285 0.552285 -1 0 -1C -0.552285 -1 -1 -0.552285 -1 0L 1 0ZM 0 6.02061L -1 6.02061C -1 6.57289 -0.552285 7.02061 2.22045e-16 7.02061L 0 6.02061ZM 6.03214 7.02061C 6.58442 7.02061 7.03214 6.57289 7.03214 6.02061C 7.03214 5.46832 6.58442 5.02061 6.03214 5.02061L 6.03214 7.02061ZM -1 0L -1 6.02061L 1 6.02061L 1 0L -1 0ZM 0 7.02061L 6.03214 7.02061L 6.03214 5.02061L 0 5.02061L 0 7.02061Z"/>
<path id="path1_stroke" d="M 7.74392 0.707783C 8.13482 0.317632 8.13543 -0.315532 7.74528 -0.70643C 7.35512 -1.09733 6.72196 -1.09793 6.33106 -0.707783L 7.74392 0.707783ZM -0.70643 6.31626C -1.09733 6.70641 -1.09793 7.33957 -0.707783 7.73047C -0.317632 8.12137 0.315532 8.12197 0.70643 7.73182L -0.70643 6.31626ZM 6.33106 -0.707783L -0.70643 6.31626L 0.70643 7.73182L 7.74392 0.707783L 6.33106 -0.707783Z"/>
<path id="path2_stroke" d="M 19.9946 14.9713L 18.995 14.9465C 18.9947 14.9548 18.9946 14.9631 18.9946 14.9713L 19.9946 14.9713ZM 19.9946 17.9816L 18.9946 17.9816L 18.9947 17.9857L 19.9946 17.9816ZM 17.803 19.9885L 17.6952 20.9827C 17.7011 20.9833 17.7071 20.9839 17.7131 20.9845L 17.803 19.9885ZM 9.12675 16.908L 9.67014 16.0684L 9.66234 16.0635L 9.12675 16.908ZM 3.09461 10.8874L 3.93819 10.3503L 3.93342 10.3429L 3.09461 10.8874ZM 0.00816731 2.18759L -0.987759 2.27776C -0.987287 2.28297 -0.986774 2.28818 -0.98622 2.29339L 0.00816731 2.18759ZM 2.00883 9.86566e-05L 2.00883 -0.999902L 2.00789 -0.999901L 2.00883 9.86566e-05ZM 5.02489 9.86566e-05L 5.02489 1.00015L 5.03472 1.00005L 5.02489 9.86566e-05ZM 7.03561 1.72601L 8.02703 1.595L 8.02573 1.58579L 7.03561 1.72601ZM 7.73936 4.54566L 6.80268 4.89585L 6.80353 4.89811L 7.73936 4.54566ZM 7.28694 6.6629L 7.99339 7.3707L 7.99732 7.36672L 7.28694 6.6629ZM 6.01014 7.93726L 5.30371 7.22948C 4.98463 7.54796 4.91809 8.04056 5.14126 8.43227L 6.01014 7.93726ZM 12.0423 13.9579L 11.5487 14.8276C 11.9396 15.0494 12.4306 14.9832 12.7487 14.6657L 12.0423 13.9579ZM 13.3191 12.6835L 12.6166 11.9718L 12.6127 11.9757L 13.3191 12.6835ZM 15.4404 12.232L 15.0891 13.1682L 15.0914 13.1691L 15.4404 12.232ZM 18.2654 12.9344L 18.4049 11.9441L 18.3959 11.9429L 18.2654 12.9344ZM 18.9946 14.9713L 18.9946 17.9816L 20.9946 17.9816L 20.9946 14.9713L 18.9946 14.9713ZM 18.9947 17.9857C 18.9958 18.2685 18.8775 18.5392 18.6679 18.7311L 20.0186 20.2061C 20.6434 19.6339 20.9981 18.8249 20.9946 17.9776L 18.9947 17.9857ZM 18.6679 18.7311C 18.4583 18.923 18.1769 19.0182 17.8928 18.9926L 17.7131 20.9845C 18.5568 21.0606 19.3938 20.7782 20.0186 20.2061L 18.6679 18.7311ZM 17.9108 18.9943C 14.932 18.6781 12.1796 17.7009 9.67012 16.0685L 8.58338 17.7475C 11.2957 19.4949 14.4866 20.6279 17.6952 20.9827L 17.9108 18.9943ZM 9.66234 16.0635C 7.32239 14.5865 5.41785 12.6856 3.93816 10.3503L 2.25106 11.4244C 3.85849 13.938 6.07287 16.1482 8.59116 17.7524L 9.66234 16.0635ZM 3.93342 10.3429C 2.29234 7.82717 1.31331 5.06759 1.00255 2.08179L -0.98622 2.29339C -0.636968 5.5108 0.498738 8.71204 2.25581 11.4318L 3.93342 10.3429ZM 1.00409 2.09741C 0.978668 1.81659 1.07261 1.53768 1.26361 1.32885L -0.212226 -0.0209347C -0.78227 0.602342 -1.06393 1.43649 -0.987759 2.27776L 1.00409 2.09741ZM 1.26361 1.32885C 1.45468 1.11993 1.72539 1.00037 2.00977 1.0001L 2.00789 -0.999901C 1.16344 -0.999107 0.357741 -0.644128 -0.212226 -0.0209347L 1.26361 1.32885ZM 2.00883 1.0001L 5.02489 1.0001L 5.02489 -0.999901L 2.00883 -0.999901L 2.00883 1.0001ZM 5.03472 1.00005C 5.54359 0.995052 5.9748 1.36711 6.04549 1.86622L 8.02573 1.58579C 7.8139 0.0900112 6.52468 -1.01468 5.01507 -0.999853L 5.03472 1.00005ZM 6.04422 1.85701C 6.18052 2.87625 6.44401 3.93192 6.80268 4.89585L 8.67603 4.19546C 8.35398 3.33862 8.14529 2.50249 8.02699 1.595L 6.04422 1.85701ZM 6.80353 4.89811C 6.9418 5.26527 6.8536 5.67947 6.57657 5.95908L 7.99732 7.36672C 8.8242 6.53214 9.08932 5.29282 8.67519 4.19321L 6.80353 4.89811ZM 6.58051 5.95512L 5.30371 7.22948L 6.71657 8.64505L 7.99338 7.37069L 6.58051 5.95512ZM 5.14126 8.43227C 6.64651 11.0563 8.91988 13.3253 11.5487 14.8276L 12.5359 13.0882C 10.1308 11.7335 8.23613 9.84255 6.87903 7.44226L 5.14126 8.43227ZM 12.7487 14.6657L 14.0255 13.3913L 12.6127 11.9757L 11.3358 13.2501L 12.7487 14.6657ZM 14.0215 13.3952C 14.302 13.1184 14.719 13.0294 15.0891 13.1682L 15.7917 11.2957C 14.6922 10.8832 13.4525 11.1468 12.6166 11.9718L 14.0215 13.3952ZM 15.0914 13.1691C 16.0569 13.527 17.114 13.7898 18.1349 13.9258L 18.3959 11.9429C 17.4864 11.8248 16.6481 11.6164 15.7894 11.2948L 15.0914 13.1691ZM 18.126 13.9246C 18.6355 13.9963 19.0076 14.437 18.995 14.9465L 20.9943 14.9962C 21.0323 13.4683 19.9173 12.1571 18.4049 11.9441L 18.126 13.9246Z"/>
</defs>
</svg>
