<svg width="50" height="48" viewBox="0 0 50 48" version="1.1" xmlns="http://www.w3.org/2000/svg" xmlns:xlink="http://www.w3.org/1999/xlink">
<title>crown</title>
<desc>Created using Figma</desc>
<g id="Canvas" transform="translate(413 -1955)">
<g id="crown">
<g id="Group">
<g id="Group">
<g id="Vector">
<use xlink:href="#path0_fill" transform="translate(-413 1955)" fill="#FFFFFF"/>
</g>
</g>
</g>
<g id="Group">
<g id="Group">
<g id="Vector">
<use xlink:href="#path1_fill" transform="translate(-392.807 1974.59)" fill="#FFFFFF"/>
</g>
</g>
</g>
<g id="Group">
<g id="Group">
<g id="Vector">
<use xlink:href="#path2_fill" transform="translate(-378.247 1976.55)" fill="#FFFFFF"/>
</g>
</g>
</g>
<g id="Group">
<g id="Group">
<g id="Vector">
<use xlink:href="#path3_fill" transform="translate(-405.17 1976.55)" fill="#FFFFFF"/>
</g>
</g>
</g>
<g id="Group">
<g id="Group">
<g id="Vector">
<use xlink:href="#path4_fill" transform="translate(-403.384 1997.61)" fill="#FFFFFF"/>
</g>
</g>
</g>
<g id="Group">
<g id="Group">
<g id="Vector">
<use xlink:href="#path5_fill" transform="translate(-388 1978.51)" fill="#FFFFFF"/>
</g>
</g>
</g>
</g>
</g>
<defs>
<path id="path0_fill" d="M 49.0385 39.1837L 47.1154 39.1837L 47.1154 10.7729C 48.2823 9.87843 49.0385 8.45623 49.0385 6.85723C 49.0385 4.15648 46.8817 1.95925 44.2308 1.95925C 41.5798 1.95925 39.423 4.15648 39.423 6.85723C 39.423 8.08961 39.8731 9.21633 40.6135 10.0781L 37.8672 15.6735L 33.2865 15.6735L 30.7259 10.4562C 31.3623 9.40914 31.7308 8.17636 31.7308 6.85713C 31.7308 3.07612 28.7113 -3.49161e-08 25 -3.49161e-08C 21.2887 -3.49161e-08 18.2692 3.07612 18.2692 6.85713C 18.2692 8.17636 18.6377 9.40914 19.274 10.4562L 16.7134 15.6735L 12.1327 15.6735L 9.38652 10.0781C 10.1269 9.21633 10.577 8.08961 10.577 6.85723C 10.577 4.15648 8.42021 1.95925 5.76924 1.95925C 3.11826 1.95925 0.961523 4.15648 0.961523 6.85723C 0.961523 8.45623 1.71768 9.87843 2.88457 10.7729L 2.88457 39.1837L 0.961523 39.1837C 0.430566 39.1837 0 39.6224 0 40.1633L 0 47.0204C 0 47.5613 0.430566 48 0.961523 48L 49.0385 48C 49.5694 48 50 47.5613 50 47.0204L 50 40.1633C 50 39.6224 49.5694 39.1837 49.0385 39.1837ZM 44.2308 3.9185C 45.8213 3.9185 47.1153 5.23684 47.1153 6.85723C 47.1153 7.9539 46.5223 8.91149 45.6461 9.4164C 45.6081 9.43829 45.5697 9.45918 45.5309 9.47918C 45.5191 9.48525 45.5076 9.49162 45.4958 9.49759C 45.4438 9.52345 45.3912 9.54793 45.3378 9.57061C 45.3322 9.573 45.3266 9.57499 45.321 9.57738C 45.2719 9.59787 45.2222 9.61687 45.172 9.63448C 45.1621 9.63787 45.1522 9.64135 45.1424 9.64463C 45.09 9.66234 45.0374 9.67885 44.9842 9.69348C 44.9812 9.69438 44.978 9.69537 44.9749 9.69617C 44.86 9.72741 44.743 9.75109 44.6249 9.7677C 44.6118 9.76959 44.5986 9.77108 44.5854 9.77277C 44.5402 9.77854 44.4947 9.78292 44.4493 9.7866C 44.4344 9.7877 44.4196 9.78919 44.4047 9.78999C 44.3468 9.79357 44.2889 9.79586 44.2307 9.79586C 44.185 9.79586 44.1396 9.79446 44.0944 9.79237C 44.0757 9.79148 44.057 9.78989 44.0383 9.78869C 44.0128 9.7869 43.9873 9.78521 43.962 9.78272C 43.9381 9.78043 43.9142 9.77765 43.8903 9.77476C 43.8713 9.77248 43.8522 9.77009 43.8333 9.7673C 43.806 9.76342 43.7788 9.75924 43.7517 9.75457C 43.7376 9.75218 43.7236 9.74949 43.7096 9.74691C 43.6792 9.74114 43.6488 9.73527 43.6186 9.7286C 43.6104 9.72681 43.6023 9.72482 43.5942 9.72293C 43.4798 9.69647 43.3671 9.66333 43.2568 9.62314C 43.2565 9.62304 43.2562 9.62294 43.2559 9.62284C 43.2306 9.61349 43.2057 9.60344 43.1807 9.59349C 43.163 9.58643 43.1452 9.57957 43.1277 9.5722C 43.1093 9.56434 43.091 9.55609 43.0728 9.54793C 43.0479 9.53678 43.023 9.52554 42.9985 9.5136C 42.9861 9.50763 42.9738 9.50147 42.9615 9.4953C 42.9295 9.47928 42.8977 9.46276 42.8663 9.44555C 42.8609 9.44257 42.8556 9.43968 42.8502 9.4367C 41.9549 8.93746 41.3463 7.96853 41.3463 6.85723C 41.3462 5.23684 42.6402 3.9185 44.2308 3.9185ZM 25 1.95935C 27.651 1.95935 29.8077 4.15658 29.8077 6.85733C 29.8077 9.21414 28.1652 11.1871 25.9853 11.6514C 25.9734 11.6539 25.9617 11.6564 25.95 11.6588C 25.8877 11.6715 25.8249 11.6829 25.7617 11.6932C 25.7324 11.6979 25.7028 11.7022 25.6733 11.7064C 25.6223 11.7137 25.571 11.7207 25.5194 11.7264C 25.4727 11.7314 25.4254 11.7351 25.3783 11.7388C 25.3404 11.7419 25.3027 11.7455 25.2646 11.7476C 25.1769 11.7524 25.0888 11.7554 25.0001 11.7554C 24.9114 11.7554 24.8233 11.7524 24.7356 11.7476C 24.6976 11.7456 24.6599 11.7419 24.622 11.7388C 24.5749 11.7351 24.5276 11.7313 24.4809 11.7264C 24.4292 11.7207 24.3779 11.7137 24.327 11.7064C 24.2975 11.7022 24.2679 11.6979 24.2386 11.6932C 24.1754 11.683 24.1126 11.6716 24.0503 11.6588C 24.0385 11.6564 24.0268 11.6539 24.015 11.6514C 21.835 11.1871 20.1925 9.21414 20.1925 6.85733C 20.1923 4.15648 22.349 1.95935 25 1.95935ZM 10.6783 17.0914C 10.8413 17.4231 11.1742 17.6328 11.5384 17.6328L 17.3076 17.6328C 17.6719 17.6328 18.0047 17.4231 18.1676 17.0912L 20.6291 12.076C 21.576 12.9044 22.7252 13.4411 23.9666 13.6335C 23.9726 13.6345 23.9784 13.6355 23.9843 13.6364C 24.0802 13.651 24.1766 13.6634 24.2734 13.6739C 24.293 13.6761 24.3125 13.6784 24.3321 13.6804C 24.419 13.6891 24.5064 13.6956 24.5941 13.7008C 24.6191 13.7024 24.644 13.7046 24.6691 13.7058C 24.7789 13.7112 24.8892 13.7144 24.9999 13.7144C 25.1106 13.7144 25.2209 13.7112 25.3307 13.7058C 25.3558 13.7045 25.3807 13.7023 25.4057 13.7008C 25.4934 13.6956 25.5808 13.6891 25.6677 13.6804C 25.6873 13.6784 25.7067 13.6761 25.7264 13.6739C 25.8232 13.6634 25.9196 13.651 26.0155 13.6364C 26.0215 13.6355 26.0273 13.6345 26.0332 13.6335C 27.2746 13.4409 28.4237 12.9043 29.3707 12.076L 31.8322 17.0912C 31.9951 17.4231 32.328 17.6328 32.6922 17.6328L 38.4614 17.6328C 38.8257 17.6328 39.1585 17.4231 39.3214 17.0913L 42.172 11.2831C 42.187 11.2904 42.2024 11.2965 42.2176 11.3035C 42.2784 11.3323 42.3397 11.36 42.402 11.3862C 42.4162 11.3922 42.4305 11.3976 42.4448 11.4034C 42.5121 11.431 42.5801 11.4571 42.6488 11.4816C 42.6604 11.4857 42.6721 11.4897 42.6837 11.4936C 42.7553 11.5184 42.8273 11.5416 42.9003 11.563C 42.9105 11.5661 42.9209 11.569 42.9312 11.5719C 43.0047 11.593 43.079 11.6123 43.1539 11.6298C 43.1645 11.6323 43.1751 11.6349 43.1856 11.6373C 43.2593 11.6539 43.3335 11.6688 43.4084 11.6821C 43.4206 11.6843 43.4327 11.6867 43.4449 11.6887C 43.5169 11.7009 43.5896 11.711 43.6625 11.7198C 43.6774 11.7217 43.6922 11.7239 43.7071 11.7256C 43.7775 11.7334 43.8484 11.7392 43.9197 11.7438C 43.9364 11.7449 43.9531 11.7467 43.9698 11.7476C 44.0562 11.7523 44.143 11.7551 44.2304 11.7551C 44.3114 11.7551 44.3924 11.753 44.4731 11.7488C 44.718 11.7364 44.9579 11.7052 45.1919 11.6566L 45.1919 39.1838L 4.80771 39.1838L 4.80771 11.6567C 5.0417 11.7053 5.28164 11.7365 5.52646 11.7489C 5.60723 11.7531 5.68818 11.7552 5.76924 11.7552C 5.85674 11.7552 5.94355 11.7524 6.02979 11.7477C 6.04648 11.7468 6.06318 11.745 6.07988 11.7439C 6.15117 11.7393 6.22207 11.7335 6.29248 11.7257C 6.30742 11.724 6.32217 11.7217 6.33711 11.7199C 6.41016 11.711 6.48272 11.7009 6.55469 11.6888C 6.5669 11.6868 6.579 11.6844 6.59121 11.6822C 6.66611 11.6689 6.74033 11.654 6.81396 11.6374C 6.82451 11.635 6.83516 11.6324 6.8457 11.6299C 6.9207 11.6124 6.99492 11.5931 7.06846 11.572C 7.07871 11.5691 7.08906 11.5661 7.09932 11.5631C 7.17227 11.5416 7.24453 11.5185 7.31592 11.4937C 7.32754 11.4898 7.33916 11.4858 7.35078 11.4817C 7.41953 11.4572 7.4875 11.4311 7.55479 11.4035C 7.56904 11.3977 7.5834 11.3923 7.59766 11.3863C 7.65977 11.3601 7.72109 11.3323 7.78203 11.3036C 7.79717 11.2966 7.8126 11.2904 7.82764 11.2832L 10.6783 17.0914ZM 5.76924 3.9185C 7.35986 3.9185 8.65381 5.23684 8.65381 6.85723C 8.65381 7.96843 8.04512 8.93746 7.1498 9.4369C 7.14453 9.43988 7.13916 9.44277 7.13379 9.44575C 7.10244 9.46296 7.07061 9.47948 7.03848 9.4955C 7.02617 9.50166 7.01387 9.50783 7.00146 9.5138C 6.97695 9.52564 6.95215 9.53688 6.92725 9.54813C 6.90898 9.55628 6.89072 9.56454 6.87227 9.5724C 6.85479 9.57986 6.83701 9.58673 6.81924 9.59369C 6.79424 9.60364 6.76934 9.61379 6.74404 9.62304C 6.74375 9.62314 6.74336 9.62324 6.74307 9.62334C 6.63291 9.66363 6.52012 9.69666 6.40566 9.72313C 6.39756 9.72502 6.38955 9.72701 6.38135 9.7289C 6.35117 9.73557 6.3208 9.74143 6.29043 9.74711C 6.27637 9.74979 6.2624 9.75238 6.24824 9.75487C 6.22109 9.75954 6.19395 9.76372 6.1667 9.7676C 6.14775 9.77029 6.12871 9.77267 6.10967 9.77506C 6.08584 9.77795 6.06191 9.78073 6.03799 9.78302C 6.0127 9.78541 5.98721 9.7872 5.96172 9.78899C 5.94297 9.79028 5.92432 9.79188 5.90557 9.79267C 5.86035 9.79466 5.81504 9.79605 5.76934 9.79605C 5.71113 9.79605 5.65322 9.79377 5.59531 9.79018C 5.58037 9.78929 5.56553 9.7878 5.55068 9.7868C 5.50508 9.78332 5.45977 9.77874 5.41455 9.77297C 5.40146 9.77128 5.38828 9.76969 5.3752 9.7679C 5.25713 9.75128 5.14014 9.7276 5.0252 9.69637C 5.02217 9.69547 5.01904 9.69448 5.01602 9.69368C 4.96289 9.67896 4.91016 9.66254 4.85781 9.64483C 4.84795 9.64145 4.83799 9.63807 4.82822 9.63468C 4.77803 9.61697 4.72832 9.59797 4.6791 9.57748C 4.67354 9.57519 4.66797 9.5731 4.6624 9.57081C 4.60908 9.54823 4.55635 9.52365 4.5043 9.49778C 4.49248 9.49182 4.48096 9.48555 4.46924 9.47938C 4.43037 9.45938 4.39199 9.43839 4.354 9.4166C 3.47783 8.91159 2.88477 7.954 2.88477 6.85733C 2.88457 5.23684 4.17861 3.9185 5.76924 3.9185ZM 48.077 46.0408L 1.92305 46.0408L 1.92305 44.5715L 7.69229 44.5715C 8.22324 44.5715 8.65381 44.1328 8.65381 43.5919C 8.65381 43.051 8.22324 42.6123 7.69229 42.6123L 1.92305 42.6123L 1.92305 41.143L 48.0769 41.143L 48.0769 46.0408L 48.077 46.0408Z"/>
<path id="path1_fill" d="M 9.33369 2.24608L 7.41064 0.286928C 7.23027 0.10327 6.98574 -6.80105e-07 6.73076 -6.80105e-07L 2.88457 -6.80105e-07C 2.62959 -6.80105e-07 2.38506 0.10327 2.20469 0.286928L 0.281641 2.24608C 0.101368 2.42984 4.17233e-07 2.67896 4.17233e-07 2.93873L 4.17233e-07 12.7347C 4.17233e-07 12.9944 0.101368 13.2436 0.281641 13.4273L 2.20469 15.3865C 2.38506 15.5701 2.62959 15.6734 2.88457 15.6734L 6.73076 15.6734C 6.98574 15.6734 7.23027 15.5701 7.41064 15.3865L 9.33369 13.4273C 9.51396 13.2436 9.61533 12.9944 9.61533 12.7347L 9.61533 2.93873C 9.61533 2.67896 9.51396 2.42984 9.33369 2.24608ZM 7.69219 12.3288L 6.33232 13.7142L 3.28281 13.7142L 1.92305 12.3288L 1.92305 5.87745L 2.88457 5.87745C 3.41553 5.87745 3.84609 5.4388 3.84609 4.89788C 3.84609 4.35695 3.41553 3.9183 2.88457 3.9183L 1.92305 3.9183L 1.92305 3.34455L 3.28291 1.95915L 6.33242 1.95915L 7.69219 3.34455L 7.69219 12.3288Z"/>
<path id="path2_fill" d="M 7.13584 1.68635L 5.76221 0.286928C 5.58184 0.10327 5.3373 -5.46513e-07 5.08232 -5.46513e-07L 2.33506 -5.46513e-07C 2.08008 -5.46513e-07 1.83545 0.10327 1.65518 0.286928L 0.28164 1.68635C 0.101366 1.87011 -1.16825e-06 2.11923 -1.16825e-06 2.379L -1.16825e-06 9.37601C -1.16825e-06 9.63578 0.101366 9.8849 0.28164 10.0687L 1.65527 11.4681C 1.83564 11.6517 2.08018 11.755 2.33516 11.755L 5.08232 11.755C 5.3373 11.755 5.58193 11.6517 5.76221 11.4681L 7.13574 10.0687C 7.31601 9.8849 7.41738 9.63578 7.41738 9.37601L 7.41738 2.379C 7.41748 2.11923 7.31611 1.87011 7.13584 1.68635ZM 5.49443 8.97029L 4.68408 9.79586L 2.73349 9.79586L 1.92305 8.97019L 1.92305 2.78462L 2.7334 1.95905L 4.68399 1.95905L 5.49443 2.78472L 5.49443 8.97029Z"/>
<path id="path3_fill" d="M 7.13584 1.68635L 5.76231 0.286928C 5.58203 0.10327 5.3374 -5.46513e-07 5.08242 -5.46513e-07L 2.33525 -5.46513e-07C 2.08027 -5.46513e-07 1.83574 0.10327 1.65537 0.286928L 0.28164 1.68635C 0.101367 1.87011 2.44379e-07 2.11923 2.44379e-07 2.379L 2.44379e-07 9.37601C 2.44379e-07 9.63578 0.101367 9.8849 0.28164 10.0687L 1.65518 11.4681C 1.83545 11.6517 2.08008 11.755 2.33506 11.755L 5.08223 11.755C 5.33721 11.755 5.58174 11.6517 5.76211 11.4681L 7.13574 10.0687C 7.31602 9.8849 7.41738 9.63578 7.41738 9.37601L 7.41738 2.379C 7.41748 2.11923 7.31621 1.87011 7.13584 1.68635ZM 5.49453 8.97019L 4.68408 9.79586L 2.7335 9.79586L 1.92314 8.97029L 1.92314 2.78472L 2.73359 1.95905L 4.68418 1.95905L 5.49453 2.78462L 5.49453 8.97019Z"/>
<path id="path4_fill" d="M 1.90381 0.788032C 1.89238 0.725354 1.87305 0.66357 1.84902 0.604871C 1.825 0.545078 1.79521 0.488369 1.76055 0.43554C 1.72607 0.381617 1.68564 0.331575 1.64131 0.286506C 1.59707 0.241437 1.54805 0.200347 1.49512 0.165028C 1.44316 0.129908 1.3874 0.0993645 1.32881 0.07489C 1.27109 0.0504156 1.21064 0.0308163 1.14912 0.019176C 1.0251 -0.00639282 0.897168 -0.00639282 0.774121 0.019176C 0.712598 0.0308163 0.652051 0.0504156 0.59336 0.07489C 0.535547 0.0993645 0.479883 0.129809 0.42793 0.165028C 0.374903 0.200248 0.325879 0.241437 0.281641 0.286506C 0.237402 0.331575 0.19707 0.381517 0.162402 0.43554C 0.126856 0.488469 0.0979494 0.545177 0.073926 0.604871C 0.0499026 0.66367 0.0306644 0.725354 0.0181644 0.788032C 0.00566437 0.850711 -1.43051e-07 0.91538 -1.43051e-07 0.979054C -1.43051e-07 1.04263 0.00576203 1.10739 0.0181644 1.17007C 0.0306644 1.23275 0.0499026 1.29444 0.073926 1.35314C 0.0979494 1.41293 0.126856 1.46974 0.162402 1.52256C 0.196973 1.57649 0.237402 1.62643 0.281641 1.6715C 0.325879 1.71657 0.374903 1.75776 0.42793 1.79298C 0.479883 1.8282 0.535547 1.85864 0.59336 1.88312C 0.652051 1.90759 0.712598 1.92719 0.774121 1.93992C 0.835645 1.95266 0.899121 1.95853 0.961621 1.95853C 1.02402 1.95853 1.0876 1.95256 1.14912 1.93992C 1.21064 1.92719 1.27119 1.90759 1.32881 1.88312C 1.3875 1.85864 1.44326 1.8283 1.49512 1.79298C 1.54805 1.75776 1.59707 1.71657 1.64131 1.6715C 1.68564 1.62643 1.72598 1.57649 1.76055 1.52256C 1.79512 1.46964 1.825 1.41283 1.84902 1.35314C 1.87305 1.29434 1.89229 1.23275 1.90381 1.17007C 1.91631 1.10729 1.92305 1.04263 1.92305 0.979054C 1.92305 0.91538 1.91631 0.850611 1.90381 0.788032Z"/>
<path id="path5_fill" d="M 1.64121 0.287526C 1.59697 0.242457 1.54795 0.201367 1.49502 0.166048C 1.44316 0.130829 1.3874 0.100386 1.32871 0.0759113C 1.27099 0.0514368 1.21055 0.0318375 1.14902 0.0191028C 1.025 -0.00636659 0.898046 -0.00636659 0.774023 0.0191028C 0.712499 0.0318375 0.651952 0.0514368 0.594237 0.0759113C 0.535546 0.100386 0.479882 0.130829 0.428027 0.166048C 0.375 0.201267 0.325978 0.242457 0.281739 0.287526C 0.102931 0.469691 -5.55112e-15 0.7215 -5.55112e-15 0.980074C -5.55112e-15 1.23775 0.102833 1.49045 0.281739 1.67252C 0.325978 1.71759 0.375 1.75878 0.428027 1.794C 0.47998 1.82922 0.535644 1.85966 0.594237 1.88414C 0.65205 1.90861 0.712499 1.92821 0.774023 1.94094C 0.835546 1.95368 0.899024 1.95955 0.961524 1.95955C 1.02393 1.95955 1.0875 1.95358 1.14902 1.94094C 1.21055 1.92821 1.27109 1.90861 1.32871 1.88414C 1.3874 1.85966 1.44316 1.82932 1.49502 1.794C 1.54795 1.75878 1.59697 1.71759 1.64121 1.67252C 1.82012 1.49045 1.92305 1.23765 1.92305 0.980074C 1.92305 0.7214 1.82021 0.469691 1.64121 0.287526Z"/>
</defs>
</svg>
