<svg width="50" height="50" viewBox="0 0 50 50" version="1.1" xmlns="http://www.w3.org/2000/svg" xmlns:xlink="http://www.w3.org/1999/xlink">
<title>coin (1)</title>
<desc>Created using Figma</desc>
<g id="Canvas" transform="translate(219 -2301)">
<g id="coin (1)">
<g id="Group">
<g id="Group">
<g id="Vector">
<use xlink:href="#path0_fill" transform="translate(-212.054 2339.52)" fill="#66B5D5"/>
</g>
</g>
</g>
<g id="Group">
<g id="Group">
<g id="Vector">
<use xlink:href="#path1_fill" transform="translate(-219 2327.09)" fill="#66B5D5"/>
</g>
</g>
</g>
<g id="Group">
<g id="Group">
<g id="Vector">
<use xlink:href="#path2_fill" transform="translate(-187.187 2305.66)" fill="#66B5D5"/>
</g>
</g>
</g>
<g id="Group">
<g id="Group">
<g id="Vector">
<use xlink:href="#path3_fill" transform="translate(-196.499 2301)" fill="#66B5D5"/>
</g>
</g>
</g>
</g>
</g>
<defs>
<path id="path0_fill" d="M 0.988615 1.95313C 1.53461 1.95313 1.97723 1.5159 1.97723 0.976564C 1.97723 0.437223 1.53461 0 0.988615 0C 0.442618 0 0 0.437223 0 0.976564C 0 1.5159 0.442618 1.95313 0.988615 1.95313Z"/>
<path id="path1_fill" d="M 49.6731 6.64216C 48.8183 4.73015 46.5481 3.8613 44.6125 4.70544C 44.6075 4.70759 44.6026 4.70983 44.5977 4.71198L 38.2204 7.61716C 37.7246 7.84304 37.508 8.42321 37.7366 8.91296C 37.9653 9.4028 38.5524 9.61648 39.0484 9.39089L 45.4173 6.48952C 46.3543 6.08483 47.451 6.50622 47.8644 7.43122C 48.0651 7.88034 48.0768 8.37966 47.8973 8.83728C 47.7179 9.29489 47.3686 9.65622 46.914 9.85446L 33.8633 15.5465C 31.7986 16.447 29.4553 16.3947 27.434 15.4026L 22.6567 13.0581C 20.108 11.8072 17.1527 11.7412 14.5492 12.8766L 14.4667 12.9127L 10.9065 4.94753L 15.8518 2.79069C 18.2101 1.76188 20.8419 1.67888 23.2617 2.55681L 32.8685 6.04177C 33.7386 6.35739 34.2023 7.31902 33.9023 8.18532C 33.5965 9.06804 32.6198 9.54294 31.7253 9.24411L 24.2962 6.76188C 23.779 6.58894 23.2179 6.86316 23.043 7.37409C 22.868 7.88503 23.1455 8.43923 23.6627 8.61208L 31.0917 11.0942C 31.4822 11.2247 31.8795 11.2866 32.2709 11.2866C 33.8082 11.2866 35.2491 10.3305 35.7731 8.81755C 36.4181 6.95485 35.4209 4.88718 33.5502 4.20847L 23.9434 0.723505C 21.0399 -0.329815 17.8828 -0.230205 15.0532 1.00388L 10.0743 3.17536C 9.79244 2.75144 9.3873 2.4236 8.89903 2.23679C 8.27986 1.99968 7.60453 2.01511 6.99723 2.28005L 0.637562 5.05368C 0.280277 5.20954 0.049336 5.55857 0.0482485 5.94431L 4.10518e-06 22.931C -0.00098451 23.2708 0.176867 23.5865 0.469498 23.7648C 0.628072 23.8615 0.808197 23.9103 0.988719 23.9103C 1.14116 23.9103 1.2939 23.8756 1.43449 23.8054L 13.8753 17.5973C 14.4698 17.3301 14.9262 16.8526 15.1626 16.25C 15.3582 15.7514 15.3839 15.2158 15.2414 14.7098L 15.3478 14.6634C 17.4125 13.7629 19.7557 13.8153 21.777 14.8074L 26.5543 17.1519C 29.1033 18.4028 32.0583 18.4686 34.6618 17.3333L 47.7126 11.6413C 49.6483 10.7969 50.5278 8.55437 49.6731 6.64216ZM 13.3188 15.5444C 13.2698 15.6694 13.1744 15.768 13.0502 15.8222C 13.0345 15.8291 1.98178 21.3441 1.98178 21.3441L 1.99375 17.1456L 4.85737 15.7565C 5.34752 15.5187 5.5497 14.9336 5.30897 14.4495C 5.06834 13.9652 4.47586 13.7656 3.98581 14.0033L 1.99987 14.9666L 2.0237 6.58425L 7.79583 4.06677C 7.92 4.01276 8.05811 4.00944 8.18465 4.05788C 8.3113 4.10632 8.41124 4.20065 8.46601 4.32331L 13.3099 15.1603C 13.3647 15.2829 13.3679 15.4194 13.3188 15.5444Z"/>
<path id="path2_fill" d="M 5.02187 7.59365L 4.33735 7.59365L 3.89327 7.59365L 3.20875 7.59365C 2.52967 7.59365 1.97713 7.04785 1.97713 6.37705L 1.97713 5.33535C 1.97713 4.66455 2.52957 4.11875 3.20875 4.11875L 5.21762 4.11875C 5.78884 4.11875 6.25349 4.57773 6.25349 5.14199C 6.25349 5.68125 6.69609 6.11856 7.2421 6.11856C 7.78812 6.11856 8.23072 5.68125 8.23072 5.14199C 8.23072 3.50078 6.87908 2.16563 5.21762 2.16563L 5.10402 2.16563L 5.10402 0.976563C 5.10402 0.437305 4.66142 4.76837e-08 4.11541 4.76837e-08C 3.5694 4.76837e-08 3.12679 0.437305 3.12679 0.976563L 3.12679 2.16768C 1.39533 2.21094 -3.37906e-07 3.61475 -3.37906e-07 5.33535L -3.37906e-07 6.37705C -3.37906e-07 8.12481 1.43952 9.54678 3.20885 9.54678L 3.89336 9.54678L 4.33745 9.54678L 5.02197 9.54678C 5.70105 9.54678 6.25359 10.0925 6.25359 10.7633L 6.25359 11.8051C 6.25359 12.476 5.70105 13.0216 5.02197 13.0216L 3.0131 13.0216C 2.44188 13.0216 1.97723 12.5626 1.97723 11.9983C 1.97723 11.4591 1.53463 11.0218 0.988615 11.0218C 0.442603 11.0218 -3.37906e-07 11.4591 -3.37906e-07 11.9983C -3.37906e-07 13.6396 1.35163 14.9747 3.0131 14.9747L 3.12679 14.9747L 3.12679 16.164C 3.12679 16.7032 3.5694 17.1405 4.11541 17.1405C 4.66142 17.1405 5.10402 16.7032 5.10402 16.164L 5.10402 14.9727C 6.83548 14.9294 8.23072 13.5256 8.23072 11.8051L 8.23072 10.7633C 8.23072 9.01563 6.79119 7.59365 5.02187 7.59365Z"/>
<path id="path3_fill" d="M 13.4267 0C 6.02314 0 -9.65445e-08 5.9498 -9.65445e-08 13.263C -9.65445e-08 20.5762 6.02324 26.5261 13.4267 26.5261C 20.8302 26.5261 26.8534 20.5763 26.8534 13.2631C 26.8534 5.9499 20.8302 0 13.4267 0ZM 13.4267 24.5729C 7.11338 24.5729 1.97723 19.4992 1.97723 13.263C 1.97723 7.02676 7.11338 1.95312 13.4267 1.95312C 19.7399 1.95312 24.8761 7.02676 24.8761 13.263C 24.8761 19.4992 19.7399 24.5729 13.4267 24.5729Z"/>
</defs>
</svg>
