<svg width="50" height="50" viewBox="0 0 50 50" version="1.1" xmlns="http://www.w3.org/2000/svg" xmlns:xlink="http://www.w3.org/1999/xlink">
<title>witness</title>
<desc>Created using Figma</desc>
<g id="Canvas" transform="translate(25 -1954)">
<g id="witness">
<g id="Group">
<g id="Group">
<g id="Vector">
<use xlink:href="#path0_fill" transform="translate(-24.9998 1962.79)" fill="#FFFFFF"/>
</g>
</g>
</g>
<g id="Group">
<g id="Group">
<g id="Vector">
<use xlink:href="#path1_fill" transform="translate(19.2756 1978.02)" fill="#FFFFFF"/>
</g>
</g>
</g>
<g id="Group">
<g id="Group">
<g id="Vector">
<use xlink:href="#path2_fill" transform="translate(-21.2282 1978.02)" fill="#FFFFFF"/>
</g>
</g>
</g>
<g id="Group">
<g id="Group">
<g id="Vector">
<use xlink:href="#path3_fill" transform="translate(-0.976379 1954)" fill="#FFFFFF"/>
</g>
</g>
</g>
<g id="Group">
<g id="Group">
<g id="Vector">
<use xlink:href="#path4_fill" transform="translate(-17.6516 1961.15)" fill="#FFFFFF"/>
</g>
</g>
</g>
<g id="Group">
<g id="Group">
<g id="Vector">
<use xlink:href="#path5_fill" transform="translate(12.9001 1961.15)" fill="#FFFFFF"/>
</g>
</g>
</g>
<g id="Group">
<g id="Group">
<g id="Vector">
<use xlink:href="#path6_fill" transform="translate(-0.976379 1998.09)" fill="#FFFFFF"/>
</g>
</g>
</g>
<g id="Group">
<g id="Group">
<g id="Vector">
<use xlink:href="#path7_fill" transform="translate(12.9001 1992.1)" fill="#FFFFFF"/>
</g>
</g>
</g>
<g id="Group">
<g id="Group">
<g id="Vector">
<use xlink:href="#path8_fill" transform="translate(-17.6516 1992.1)" fill="#FFFFFF"/>
</g>
</g>
</g>
</g>
</g>
<defs>
<path id="path0_fill" d="M 49.8204 15.6007C 49.6316 15.3342 45.119 9.02119 38.2492 4.4792L 38.1355 4.4043C 37.4644 3.96367 36.7879 3.55234 36.1254 3.18193C 32.3526 1.07061 28.6095 0 25 0C 21.3905 0 17.6474 1.07061 13.875 3.18184C 13.2104 3.55332 12.5344 3.96436 11.8699 4.40049L 11.7457 4.48223C 4.88096 9.02022 0.368359 15.3343 0.17959 15.6008C -0.0598633 15.9389 -0.0598633 16.3913 0.17959 16.7294C 0.29209 16.8884 2.98574 20.6656 7.37012 24.4953C 9.95752 26.7554 12.5969 28.559 15.2151 29.8562C 18.5297 31.4984 21.8218 32.3312 25 32.3312C 28.1782 32.3312 31.4703 31.4985 34.7849 29.8562C 37.403 28.5591 40.0425 26.7554 42.6299 24.4953C 47.0142 20.6655 49.7078 16.8884 49.8204 16.7294C 50.0599 16.3913 50.0599 15.9389 49.8204 15.6007ZM 37.7861 8.18311C 37.8223 8.31494 37.8562 8.44727 37.8882 8.58008C 37.8924 8.59736 37.8964 8.61455 37.9004 8.63184C 37.9275 8.74668 37.9528 8.86201 37.977 8.97764C 37.9827 9.00488 37.9889 9.03213 37.9941 9.05918C 38.0197 9.18623 38.0435 9.31367 38.0652 9.44141C 38.0704 9.47051 38.075 9.4999 38.0796 9.5292C 38.0996 9.65059 38.1184 9.77217 38.1349 9.89414C 38.1364 9.90732 38.1382 9.92051 38.1398 9.93223L 38.14 9.93359C 38.158 10.0687 38.1739 10.204 38.1877 10.3397C 38.1888 10.3492 38.1897 10.3587 38.1905 10.3682C 38.2192 10.6576 38.2387 10.9485 38.2485 11.2407C 38.2487 11.2454 38.2488 11.25 38.2489 11.2547C 38.2537 11.4014 38.2562 11.5483 38.2562 11.6957C 38.2562 11.8876 38.2521 12.0788 38.2441 12.2692C 38.239 12.393 38.2317 12.5185 38.2227 12.645C 38.2209 12.671 38.2188 12.6969 38.2168 12.7228C 38.2062 12.8584 38.1941 12.995 38.1792 13.1325C 38.1729 13.1901 38.1669 13.2478 38.1593 13.3087C 38.1242 13.5996 38.0799 13.8862 38.0279 14.1623C 38.0257 14.1742 38.0234 14.1862 38.0212 14.1981C 38.0016 14.3013 37.9807 14.4044 37.9587 14.5067C 37.9585 14.5075 37.9584 14.5083 37.9582 14.5091L 37.9162 14.6946C 37.8938 14.792 37.8707 14.8885 37.8457 14.9848L 37.842 14.999C 37.8247 15.0657 37.8074 15.1322 37.79 15.1962L 37.7872 15.2065C 37.7801 15.2323 37.7729 15.2583 37.7655 15.2845C 37.7644 15.2889 37.7631 15.2933 37.7618 15.2977C 37.7537 15.3268 37.7452 15.3563 37.7361 15.3873C 37.7139 15.4647 37.6907 15.5412 37.6667 15.6177C 37.6653 15.6219 37.6642 15.6261 37.6629 15.6303C 37.6521 15.6664 37.6404 15.7025 37.6289 15.7387L 37.6234 15.7557C 37.5918 15.8534 37.5606 15.9468 37.5296 16.0367C 37.5135 16.0833 37.4972 16.1298 37.4806 16.1762C 37.4743 16.1934 37.4682 16.21 37.462 16.227L 28.827 12.2723L 31.1487 11.2089L 31.252 11.1619L 37.7827 8.1707C 37.7839 8.1748 37.785 8.17891 37.7861 8.18311ZM 26.0751 13.1604L 29.9669 14.9429C 29.1301 16.9062 27.1887 18.2197 25.0001 18.2197C 22.023 18.2197 19.6011 15.7978 19.6011 12.8207C 19.6011 9.84365 22.023 7.42168 25.0001 7.42168C 26.8231 7.42168 28.4986 8.33877 29.4894 9.82109L 26.0751 11.3847C 25.7278 11.5437 25.5052 11.8906 25.5052 12.2726C 25.5052 12.6545 25.7278 13.0014 26.0751 13.1604ZM 25 20.1729C 27.9624 20.1729 30.5915 18.4042 31.7421 15.7559L 36.6609 18.0086C 34.3567 22.2571 29.88 24.9531 25 24.9531C 19.6478 24.9531 15.0266 21.7646 12.9351 17.1875L 19.0896 17.1875C 20.4302 18.9972 22.5802 20.1729 25 20.1729ZM 13.0417 5.96894C 13.1144 5.92168 13.187 5.875 13.2597 5.82852C 13.3223 5.78848 13.3848 5.74795 13.4474 5.7085C 13.5448 5.64707 13.6423 5.58721 13.7397 5.52725C 13.7959 5.49268 13.8521 5.45742 13.9083 5.42334C 14.0201 5.35547 14.1316 5.28955 14.2432 5.22383C 14.285 5.19922 14.3269 5.17373 14.3686 5.14932C 14.5224 5.05957 14.6759 4.97188 14.8286 4.88643C 18.3062 2.94004 21.7285 1.95312 25 1.95312C 28.2715 1.95312 31.6938 2.94004 35.1719 4.88662C 35.3229 4.971 35.4747 5.05791 35.6271 5.14678C 35.6831 5.17939 35.7395 5.21357 35.7955 5.24678C 35.8925 5.3042 35.9893 5.36123 36.0866 5.42031C 36.1521 5.46006 36.2178 5.50117 36.2833 5.5416C 36.3718 5.59619 36.4604 5.65049 36.549 5.70635C 36.6189 5.75049 36.6892 5.7959 36.7592 5.84072C 36.8258 5.8834 36.8925 5.92617 36.9591 5.96953C 37.0154 6.08691 37.0695 6.20557 37.1225 6.32471L 31.2808 9.00029C 29.9591 6.82744 27.5893 5.46836 25.0001 5.46836C 20.9461 5.46836 17.6479 8.7665 17.6479 12.8205C 17.6479 13.6659 17.7932 14.4776 18.0569 15.2343L 12.2234 15.2343C 11.911 14.1074 11.7433 12.9211 11.7433 11.6962C 11.7433 9.68506 12.1801 7.75947 13.0417 5.96894ZM 41.3123 23.0529C 37.4792 26.3946 31.5376 30.378 25 30.378C 18.4624 30.378 12.5208 26.3946 8.6877 23.0529C 5.43643 20.2186 3.10596 17.3493 2.19561 16.1651C 3.24307 14.8026 6.17314 11.2101 10.2452 7.98486C 9.94355 9.18643 9.79004 10.4265 9.79004 11.6964C 9.79004 12.9143 9.93486 14.0987 10.2065 15.2345L 8.35811 15.2345C 7.81885 15.2345 7.38154 15.6717 7.38154 16.211C 7.38154 16.7504 7.81885 17.1876 8.35811 17.1876L 10.8162 17.1876C 13.0231 22.8685 18.5486 26.9063 25 26.9063C 30.9716 26.9063 36.417 23.3875 38.8729 17.9412C 38.9243 17.827 38.9742 17.711 39.0232 17.5949C 39.0315 17.5751 39.0397 17.5553 39.048 17.5354C 39.0668 17.4904 39.086 17.4454 39.1043 17.4005C 39.1056 17.3973 39.1068 17.3941 39.1081 17.3909L 39.1842 17.1985C 39.1856 17.1949 39.187 17.1912 39.1884 17.1876L 41.642 17.1876C 42.1813 17.1876 42.6186 16.7504 42.6186 16.211C 42.6186 15.6718 42.1813 15.2345 41.642 15.2345L 39.7967 15.2345C 39.9278 14.6842 40.0272 14.1263 40.096 13.5621C 40.0966 13.5571 40.0975 13.5521 40.098 13.5471C 40.1004 13.5279 40.1023 13.5088 40.1046 13.4895C 40.1292 13.2785 40.1501 13.0668 40.166 12.8541C 40.1691 12.8134 40.1711 12.7735 40.1739 12.733C 40.1812 12.6256 40.1875 12.518 40.1924 12.4101C 40.1938 12.3799 40.1965 12.3488 40.1976 12.3188C 40.2001 12.2561 40.2015 12.1934 40.2032 12.1306C 40.2036 12.1166 40.2042 12.1026 40.2045 12.0887C 40.2052 12.062 40.2064 12.0352 40.2068 12.0085C 40.2089 11.9051 40.21 11.8007 40.21 11.6963C 40.21 11.6071 40.209 11.519 40.207 11.4309C 40.207 11.4163 40.2064 11.4011 40.2062 11.3865C 40.206 11.3728 40.2058 11.3591 40.2055 11.3453C 40.2053 11.3371 40.2052 11.3296 40.205 11.3212C 40.2037 11.2409 40.201 11.1605 40.1979 11.0802C 40.1975 11.0673 40.1969 11.0546 40.1961 11.0423L 40.1904 10.9204C 40.1872 10.8517 40.183 10.7839 40.1785 10.7124C 40.1744 10.6506 40.1703 10.5899 40.1652 10.5283C 40.1624 10.4885 40.1587 10.4479 40.1554 10.4077C 40.1536 10.3869 40.1521 10.3661 40.1503 10.3453C 40.1489 10.3303 40.148 10.3154 40.1466 10.3004C 40.1401 10.2223 40.1316 10.1432 40.1228 10.0621L 40.1216 10.0514C 40.1195 10.032 40.1173 10.0128 40.1151 9.99356L 40.111 9.95781C 40.109 9.93135 40.1061 9.90508 40.1021 9.87881C 40.0973 9.83711 40.0919 9.79541 40.0863 9.75371C 40.0824 9.72285 40.0784 9.69209 40.0744 9.66133C 40.0718 9.63662 40.0684 9.61182 40.0643 9.58701C 40.0595 9.55098 40.0538 9.51484 40.0484 9.47881C 40.0261 9.32559 40.0019 9.17275 39.9748 9.02041C 39.973 9.01045 39.9714 9.0001 39.9694 8.99014C 39.9623 8.94922 39.9541 8.90859 39.9464 8.86797C 39.9354 8.80918 39.9244 8.75039 39.9127 8.6917C 39.9116 8.68662 39.911 8.68272 39.9099 8.67734C 39.9029 8.64199 39.8949 8.60645 39.8874 8.5709C 39.871 8.49209 39.8542 8.41348 39.8364 8.33496C 39.8347 8.32734 39.8332 8.31963 39.8313 8.31201C 39.8279 8.2957 39.8246 8.28115 39.8214 8.26836C 39.807 8.20381 39.7919 8.13994 39.7771 8.08027C 39.7766 8.07773 39.7759 8.0752 39.7753 8.07266C 39.7735 8.06553 39.7717 8.05762 39.7699 8.05068C 39.7646 8.029 39.7589 8.00684 39.7534 7.98506C 43.8213 11.2086 46.7552 14.8026 47.804 16.1654C 46.8935 17.3502 44.563 20.2188 41.3123 23.0529Z"/>
<path id="path1_fill" d="M 1.93349 0.785892C 1.9208 0.723392 1.90225 0.661867 1.87783 0.603274C 1.85342 0.543703 1.82314 0.487063 1.78799 0.434329C 1.75293 0.38052 1.71192 0.330715 1.66699 0.285891C 1.43945 0.0593284 1.10254 -0.0451629 0.785158 0.0183137C 0.722658 0.031009 0.661034 0.0505405 0.602538 0.0749545C 0.543944 0.0993686 0.487305 0.129739 0.433594 0.164798C 0.380958 0.199954 0.331053 0.240969 0.285155 0.285891C 0.103514 0.467532 4.76837e-07 0.719485 4.76837e-07 0.976321C 4.76837e-07 1.0397 0.00586009 1.10425 0.0185554 1.16675C 0.0312507 1.22925 0.0498061 1.29078 0.0742202 1.34937C 0.0986342 1.40894 0.129004 1.46558 0.164062 1.51831C 0.200195 1.57202 0.240233 1.62183 0.285155 1.66675C 0.331053 1.71177 0.38086 1.75279 0.433594 1.78784C 0.487403 1.823 0.544042 1.85328 0.602538 1.87769C 0.661132 1.9021 0.722658 1.92066 0.785158 1.93335C 0.848536 1.94605 0.91211 1.95288 0.976563 1.95288C 1.2334 1.95288 1.48438 1.84839 1.66699 1.66665C 1.71192 1.62173 1.75186 1.57193 1.78799 1.51822C 1.82314 1.46548 1.85342 1.40884 1.87783 1.34927C 1.90225 1.29068 1.9208 1.22925 1.93349 1.16675C 1.94619 1.10415 1.95303 1.0397 1.95303 0.976321C 1.95303 0.912845 1.94619 0.848392 1.93349 0.785892Z"/>
<path id="path2_fill" d="M 1.93438 0.785794C 1.92178 0.723391 1.90322 0.661965 1.87881 0.603274C 1.85439 0.543703 1.82412 0.487063 1.78896 0.434329C 1.75283 0.38052 1.71182 0.330715 1.66689 0.285891C 1.44043 0.0593284 1.10342 -0.0451629 0.786035 0.0183137C 0.723535 0.031009 0.661914 0.0505405 0.603418 0.0749545C 0.544824 0.0993686 0.487207 0.129739 0.434473 0.164798C 0.380762 0.199954 0.330957 0.240969 0.286035 0.285891C 0.241113 0.330813 0.200098 0.380618 0.164942 0.434329C 0.129883 0.487063 0.0995117 0.543606 0.0750976 0.603274C 0.0506835 0.661965 0.0322265 0.723392 0.0194336 0.785892C 0.00673825 0.848392 -1.57952e-07 0.912845 -1.57952e-07 0.976321C -1.57952e-07 1.0397 0.00673825 1.10425 0.0194336 1.16675C 0.0322265 1.22925 0.0506835 1.29077 0.0750976 1.34927C 0.0995117 1.40884 0.129883 1.46548 0.164942 1.51822C 0.200098 1.57193 0.241113 1.62173 0.286035 1.66665C 0.330957 1.71167 0.380762 1.75269 0.434473 1.78775C 0.487207 1.8229 0.544922 1.85318 0.603418 1.87759C 0.662012 1.90201 0.723535 1.92056 0.786035 1.93326C 0.849414 1.94595 0.912988 1.95279 0.976465 1.95279C 1.23428 1.95279 1.48525 1.84829 1.6668 1.66656C 1.71172 1.62163 1.75273 1.57183 1.78887 1.51812C 1.82402 1.46538 1.8543 1.40874 1.87871 1.34917C 1.90313 1.29058 1.92168 1.22915 1.93438 1.16665C 1.94707 1.10406 1.95303 1.0396 1.95303 0.976223C 1.95303 0.912746 1.94707 0.848294 1.93438 0.785794Z"/>
<path id="path3_fill" d="M 0.976562 0C 0.437305 0 0 0.437207 0 0.976562L 0 4.93457C 0 5.47383 0.437305 5.91113 0.976562 5.91113C 1.51582 5.91113 1.95312 5.47383 1.95312 4.93457L 1.95312 0.976562C 1.95312 0.437207 1.51582 0 0.976562 0Z"/>
<path id="path4_fill" d="M 4.4658 3.08467L 1.66716 0.285937C 1.28572 -0.0953128 0.667554 -0.0953128 0.286011 0.285937C -0.0953366 0.667285 -0.0953366 1.28564 0.286011 1.66709L 3.08474 4.46582C 3.27546 4.65645 3.52537 4.75186 3.77527 4.75186C 4.02527 4.75186 4.27507 4.65645 4.4658 4.46582C 4.84714 4.08447 4.84714 3.46611 4.4658 3.08467Z"/>
<path id="path5_fill" d="M 4.46589 0.285937C 4.08445 -0.0953128 3.46629 -0.0953128 3.08474 0.285937L 0.286009 3.08467C -0.0953382 3.46602 -0.0953382 4.08437 0.286009 4.46582C 0.47683 4.65654 0.726637 4.75186 0.976637 4.75186C 1.22664 4.75186 1.47644 4.65645 1.66716 4.46582L 4.46589 1.66709C 4.84724 1.28574 4.84724 0.667383 4.46589 0.285937Z"/>
<path id="path6_fill" d="M 0.976562 8.10623e-07C 0.437305 8.10623e-07 0 0.437306 0 0.976563L 0 4.93447C 0 5.47383 0.437305 5.91104 0.976562 5.91104C 1.51582 5.91104 1.95312 5.47373 1.95312 4.93447L 1.95312 0.976563C 1.95312 0.437208 1.51592 8.10623e-07 0.976562 8.10623e-07Z"/>
<path id="path7_fill" d="M 4.4658 3.08467L 1.66716 0.285938C 1.28572 -0.0953117 0.667552 -0.0953117 0.286009 0.285938C -0.0953382 0.667286 -0.0953382 1.28565 0.286009 1.66709L 3.08474 4.46582C 3.27547 4.65645 3.52537 4.75185 3.77527 4.75185C 4.02517 4.75185 4.27507 4.65645 4.4658 4.46582C 4.84715 4.08447 4.84715 3.46611 4.4658 3.08467Z"/>
<path id="path8_fill" d="M 4.4658 0.285938C 4.08445 -0.0953117 3.46619 -0.0953117 3.08474 0.285938L 0.286011 3.08467C -0.0953366 3.46602 -0.0953366 4.08438 0.286011 4.46582C 0.476734 4.65645 0.726636 4.75185 0.976538 4.75185C 1.22654 4.75185 1.47634 4.65645 1.66707 4.46582L 4.4658 1.66709C 4.84714 1.28574 4.84714 0.667384 4.4658 0.285938Z"/>
</defs>
</svg>
