<svg width="50" height="32" viewBox="0 0 50 32" version="1.1" xmlns="http://www.w3.org/2000/svg" xmlns:xlink="http://www.w3.org/1999/xlink">
<title>laptop</title>
<desc>Created using Figma</desc>
<g id="Canvas" transform="translate(219 -1963)">
<g id="laptop">
<g id="Group">
<g id="Group">
<g id="Vector">
<use xlink:href="#path0_fill" transform="translate(-219 1963)" fill="#FFFFFF"/>
</g>
</g>
</g>
<g id="Group">
<g id="Group">
<g id="Vector">
<use xlink:href="#path1_fill" transform="translate(-212.307 1966.33)" fill="#FFFFFF"/>
</g>
</g>
</g>
<g id="Group">
<g id="Group">
<g id="Vector">
<use xlink:href="#path2_fill" transform="translate(-196.165 1990.6)" fill="#FFFFFF"/>
</g>
</g>
</g>
<g id="Group">
<g id="Group">
<g id="Vector">
<use xlink:href="#path3_fill" transform="translate(-206.5 1980.71)" fill="#FFFFFF"/>
</g>
</g>
</g>
<g id="Group">
<g id="Group">
<g id="Vector">
<use xlink:href="#path4_fill" transform="translate(-199.076 1981.79)" fill="#FFFFFF"/>
</g>
</g>
</g>
<g id="Group">
<g id="Group">
<g id="Vector">
<use xlink:href="#path5_fill" transform="translate(-199.076 1976.71)" fill="#FFFFFF"/>
</g>
</g>
</g>
<g id="Group">
<g id="Group">
<g id="Vector">
<use xlink:href="#path6_fill" transform="translate(-191.744 1981.74)" fill="#FFFFFF"/>
</g>
</g>
</g>
<g id="Group">
<g id="Group">
<g id="Vector">
<use xlink:href="#path7_fill" transform="translate(-191.744 1978.15)" fill="#FFFFFF"/>
</g>
</g>
</g>
<g id="Group">
<g id="Group">
<g id="Vector">
<use xlink:href="#path8_fill" transform="translate(-183.862 1981.74)" fill="#FFFFFF"/>
</g>
</g>
</g>
<g id="Group">
<g id="Group">
<g id="Vector">
<use xlink:href="#path9_fill" transform="translate(-183.862 1977.74)" fill="#FFFFFF"/>
</g>
</g>
</g>
<g id="Group">
<g id="Group">
<g id="Vector">
<use xlink:href="#path10_fill" transform="translate(-183.862 1974.06)" fill="#FFFFFF"/>
</g>
</g>
</g>
<g id="Group">
<g id="Group">
<g id="Vector">
<use xlink:href="#path11_fill" transform="translate(-206.599 1970.05)" fill="#FFFFFF"/>
</g>
</g>
</g>
</g>
</g>
<defs>
<path id="path0_fill" d="M 49.0156 25.0519L 46.6042 25.0519L 46.6042 4.08564C 46.6042 1.83285 44.7608 -1.95564e-07 42.4949 -1.95564e-07L 7.50487 -1.95564e-07C 5.23905 -1.95564e-07 3.3956 1.83275 3.3956 4.08564L 3.3956 25.0519L 0.984276 25.0519C 0.440624 25.0519 0 25.4901 0 26.0305L 0 26.2263C 0 29.4099 2.60498 32 5.80712 32L 44.1929 32C 47.3949 32 50 29.41 50 26.2263L 50 26.0305C 49.9999 25.4901 49.5593 25.0519 49.0156 25.0519ZM 5.36415 4.08564C 5.36415 2.91206 6.3245 1.95723 7.50487 1.95723L 42.495 1.95723C 43.6754 1.95723 44.6358 2.91206 44.6358 4.08564L 44.6358 25.0519L 5.36415 25.0519L 5.36415 4.08564ZM 44.1928 30.0428L 5.80712 30.0428C 3.96025 30.0428 2.41396 28.7394 2.0497 27.0091L 47.9502 27.0091C 47.586 28.7394 46.0397 30.0428 44.1928 30.0428Z"/>
<path id="path1_fill" d="M 35.6299 3.2594e-07L 0.984275 3.2594e-07C 0.440624 3.2594e-07 3.57627e-07 0.438091 3.57627e-07 0.978616L 3.57627e-07 19.3761C 3.57627e-07 19.9166 0.440624 20.3547 0.984275 20.3547L 35.6299 20.3547C 36.1736 20.3547 36.6142 19.9166 36.6142 19.3761L 36.6142 0.978616C 36.6142 0.438188 36.1735 3.2594e-07 35.6299 3.2594e-07ZM 34.6456 18.3976L 1.96855 18.3976L 1.96855 1.95723L 34.6456 1.95723L 34.6456 18.3976Z"/>
<path id="path2_fill" d="M 3.34648 1.35117e-06L 0.984275 1.35117e-06C 0.440722 1.35117e-06 3.9339e-07 0.43809 3.9339e-07 0.978615C 3.9339e-07 1.51914 0.440624 1.95723 0.984275 1.95723L 3.34648 1.95723C 3.89013 1.95723 4.33075 1.51914 4.33075 0.978615C 4.33075 0.43809 3.89013 1.35117e-06 3.34648 1.35117e-06Z"/>
<path id="path3_fill" d="M 0.984275 4.74094e-08C 0.440721 4.74094e-08 0 0.438091 0 0.978616L 0 1.61915C 0 2.15957 0.440624 2.59776 0.984275 2.59776C 1.52793 2.59776 1.96855 2.15967 1.96855 1.61915L 1.96855 0.978616C 1.96845 0.438188 1.52783 4.74094e-08 0.984275 4.74094e-08Z"/>
<path id="path4_fill" d="M 0.984276 -9.48188e-08C 0.440625 -9.48188e-08 -2.74181e-07 0.438091 -2.74181e-07 0.978616L -2.74181e-07 1.17436C -2.74181e-07 1.71479 0.440625 2.15297 0.984276 2.15297C 1.52783 2.15297 1.96855 1.71488 1.96855 1.17436L 1.96855 0.978616C 1.96845 0.438188 1.52783 -9.48188e-08 0.984276 -9.48188e-08Z"/>
<path id="path5_fill" d="M 0.984276 -1.77785e-07C 0.440625 -1.77785e-07 -2.74181e-07 0.438089 -2.74181e-07 0.978614L -2.74181e-07 1.17436C -2.74181e-07 1.71479 0.440625 2.15297 0.984276 2.15297C 1.52783 2.15297 1.96855 1.71488 1.96855 1.17436L 1.96855 0.978614C 1.96845 0.438089 1.52783 -1.77785e-07 0.984276 -1.77785e-07Z"/>
<path id="path6_fill" d="M 0.984276 1.18524e-07C 0.440625 1.18524e-07 -9.53672e-08 0.438091 -9.53672e-08 0.978616L -9.53672e-08 1.22329C -9.53672e-08 1.76372 0.440625 2.20191 0.984276 2.20191C 1.52783 2.20191 1.96855 1.76382 1.96855 1.22329L 1.96855 0.978616C 1.96855 0.438188 1.52793 1.18524e-07 0.984276 1.18524e-07Z"/>
<path id="path7_fill" d="M 0.984276 -6.51879e-07C 0.440625 -6.51879e-07 -9.53672e-08 0.438089 -9.53672e-08 0.978614L -9.53672e-08 1.22329C -9.53672e-08 1.76382 0.440625 2.20191 0.984276 2.20191C 1.52783 2.20191 1.96855 1.76382 1.96855 1.22329L 1.96855 0.978614C 1.96855 0.438089 1.52793 -6.51879e-07 0.984276 -6.51879e-07Z"/>
<path id="path8_fill" d="M 0.984277 1.18524e-07C 0.440626 1.18524e-07 4.52994e-07 0.438091 4.52994e-07 0.978616L 4.52994e-07 1.22329C 4.52994e-07 1.76372 0.440626 2.20191 0.984277 2.20191C 1.52783 2.20191 1.96855 1.76382 1.96855 1.22329L 1.96855 0.978616C 1.96855 0.438188 1.52783 1.18524e-07 0.984277 1.18524e-07Z"/>
<path id="path9_fill" d="M 0.984277 5.92617e-07C 0.440626 5.92617e-07 4.52994e-07 0.43809 4.52994e-07 0.978615L 4.52994e-07 1.5507C 4.52994e-07 2.09112 0.440626 2.52931 0.984277 2.52931C 1.52783 2.52931 1.96855 2.09122 1.96855 1.5507L 1.96855 0.978615C 1.96855 0.43809 1.52783 5.92617e-07 0.984277 5.92617e-07Z"/>
<path id="path10_fill" d="M 0.984277 4.85946e-07C 0.440626 4.85946e-07 4.52994e-07 0.43809 4.52994e-07 0.978615L 4.52994e-07 1.22329C 4.52994e-07 1.76372 0.440626 2.20191 0.984277 2.20191C 1.52783 2.20191 1.96855 1.76382 1.96855 1.22329L 1.96855 0.978615C 1.96855 0.438187 1.52783 4.85946e-07 0.984277 4.85946e-07Z"/>
<path id="path11_fill" d="M 24.3602 0.462937C 24.0737 0.00358325 23.4667 -0.137786 23.005 0.147186L 15.6136 4.70538L 8.56431 2.49211C 8.28716 2.40502 7.9856 2.44425 7.74019 2.59921L 0.456705 7.19858C -0.00218055 7.48831 -0.137923 8.09311 0.15358 8.54935C 0.341275 8.84306 0.659927 9.00356 0.985512 9.00356C 1.16588 9.00356 1.3487 8.95424 1.51227 8.85093L 8.40874 4.49595L 15.4519 6.70728C 15.7253 6.7932 16.0232 6.75612 16.267 6.60572L 24.0426 1.81061C 24.5044 1.52544 24.6467 0.922194 24.3602 0.462937Z"/>
</defs>
</svg>
