<svg width="50" height="42" viewBox="0 0 50 42" version="1.1" xmlns="http://www.w3.org/2000/svg" xmlns:xlink="http://www.w3.org/1999/xlink">
<title>coin</title>
<desc>Created using Figma</desc>
<g id="Canvas" transform="translate(-169 -1958)">
<g id="coin">
<g id="Group">
<g id="Group">
<g id="Vector">
<use xlink:href="#path0_fill" transform="translate(217.042 1963.79)" fill="#FFFFFF"/>
</g>
</g>
</g>
<g id="Group">
<g id="Group">
<g id="Vector">
<use xlink:href="#path1_fill" transform="translate(169 1981.59)" fill="#FFFFFF"/>
</g>
</g>
</g>
<g id="Group">
<g id="Group">
<g id="Vector">
<use xlink:href="#path2_fill" transform="translate(203.335 1987.02)" fill="#FFFFFF"/>
</g>
</g>
</g>
<g id="Group">
<g id="Group">
<g id="Vector">
<use xlink:href="#path3_fill" transform="translate(201.155 1988.99)" fill="#FFFFFF"/>
</g>
</g>
</g>
<g id="Group">
<g id="Group">
<g id="Vector">
<use xlink:href="#path4_fill" transform="translate(198.607 1990.44)" fill="#FFFFFF"/>
</g>
</g>
</g>
<g id="Group">
<g id="Group">
<g id="Vector">
<use xlink:href="#path5_fill" transform="translate(195.804 1991.32)" fill="#FFFFFF"/>
</g>
</g>
</g>
<g id="Group">
<g id="Group">
<g id="Vector">
<use xlink:href="#path6_fill" transform="translate(206.787 1976.18)" fill="#FFFFFF"/>
</g>
</g>
</g>
<g id="Group">
<g id="Group">
<g id="Vector">
<use xlink:href="#path7_fill" transform="translate(206.767 1979.09)" fill="#FFFFFF"/>
</g>
</g>
</g>
<g id="Group">
<g id="Group">
<g id="Vector">
<use xlink:href="#path8_fill" transform="translate(205.046 1984.65)" fill="#FFFFFF"/>
</g>
</g>
</g>
<g id="Group">
<g id="Group">
<g id="Vector">
<use xlink:href="#path9_fill" transform="translate(206.209 1981.96)" fill="#FFFFFF"/>
</g>
</g>
</g>
<g id="Group">
<g id="Group">
<g id="Vector">
<use xlink:href="#path10_fill" transform="translate(179.727 1981.11)" fill="#FFFFFF"/>
</g>
</g>
</g>
<g id="Group">
<g id="Group">
<g id="Vector">
<use xlink:href="#path11_fill" transform="translate(180.492 1972.51)" fill="#FFFFFF"/>
</g>
</g>
</g>
<g id="Group">
<g id="Group">
<g id="Vector">
<use xlink:href="#path12_fill" transform="translate(179.617 1975.3)" fill="#FFFFFF"/>
</g>
</g>
</g>
<g id="Group">
<g id="Group">
<g id="Vector">
<use xlink:href="#path13_fill" transform="translate(181.948 1969.97)" fill="#FFFFFF"/>
</g>
</g>
</g>
<g id="Group">
<g id="Group">
<g id="Vector">
<use xlink:href="#path14_fill" transform="translate(183.914 1967.8)" fill="#FFFFFF"/>
</g>
</g>
</g>
<g id="Group">
<g id="Group">
<g id="Vector">
<use xlink:href="#path15_fill" transform="translate(186.294 1966.09)" fill="#FFFFFF"/>
</g>
</g>
</g>
<g id="Group">
<g id="Group">
<g id="Vector">
<use xlink:href="#path16_fill" transform="translate(188.99 1964.93)" fill="#FFFFFF"/>
</g>
</g>
</g>
<g id="Group">
<g id="Group">
<g id="Vector">
<use xlink:href="#path17_fill" transform="translate(191.879 1964.37)" fill="#FFFFFF"/>
</g>
</g>
</g>
<g id="Group">
<g id="Group">
<g id="Vector">
<use xlink:href="#path18_fill" transform="translate(179.361 1978.2)" fill="#FFFFFF"/>
</g>
</g>
</g>
<g id="Group">
<g id="Group">
<g id="Vector">
<use xlink:href="#path19_fill" transform="translate(189.547 1969.47)" fill="#FFFFFF"/>
</g>
</g>
</g>
<g id="Group">
<g id="Group">
<g id="Vector">
<use xlink:href="#path20_fill" transform="translate(186.145 1958)" fill="#FFFFFF"/>
</g>
</g>
</g>
<g id="Group">
<g id="Group">
<g id="Vector">
<use xlink:href="#path21_fill" transform="translate(169 1992.23)" fill="#FFFFFF"/>
</g>
</g>
</g>
</g>
</g>
<defs>
<path id="path0_fill" d="M 0.978806 1.94498C 1.51939 1.94498 1.95761 1.50958 1.95761 0.972489C 1.95761 0.435398 1.51939 0 0.978806 0C 0.438226 0 0 0.435398 0 0.972489C 0 1.50958 0.438226 1.94498 0.978806 1.94498Z"/>
<path id="path1_fill" d="M 29.8386 12.4217L 26.05 12.4217C 25.5094 12.4217 25.0711 12.8572 25.0711 13.3942C 25.0711 13.9312 25.5093 14.3667 26.05 14.3667L 29.8386 14.3667C 30.4219 14.3667 30.8965 14.8383 30.8965 15.4179C 30.8965 15.9974 30.4219 16.4689 29.8386 16.4689L 19.6401 16.4689C 18.1078 16.4689 16.6669 15.7976 15.6868 14.6273L 13.248 11.7147C 11.9393 10.1518 10.035 9.23636 7.99735 9.17766L 7.99735 3.45198L 11.5899 3.45198C 13.3621 3.45198 15.0402 4.12544 16.3152 5.34825L 21.5791 10.3965C 21.9503 10.7524 21.9675 11.3484 21.6176 11.7252C 21.2611 12.109 20.6556 12.134 20.2681 11.7812L 16.1354 8.01723C 15.7369 7.65436 15.1178 7.68104 14.7525 8.0769C 14.3873 8.47267 14.4141 9.08781 14.8126 9.45079L 18.9454 13.2148C 19.5032 13.7228 20.209 13.9736 20.9131 13.9736C 21.6992 13.9736 22.4831 13.6609 23.056 13.0442C 24.1219 11.8969 24.0692 10.0814 22.9385 8.997L 17.6748 3.94885C 16.033 2.37422 13.8719 1.507 11.59 1.507L 7.82098 1.507C 7.46151 0.624555 6.59042 -8.05389e-07 5.57479 -8.05389e-07L 0.978807 -8.05389e-07C 0.438183 9.62203e-05 0 0.435549 0 0.972489L 0 8.06604C 0 8.60298 0.438183 9.03853 0.978807 9.03853C 1.51933 9.03853 1.95761 8.60307 1.95761 8.06604L 1.95761 1.94498L 5.57489 1.94498C 5.83134 1.94498 6.03993 2.15222 6.03993 2.40701L 6.03993 10.1822C 6.03993 10.437 5.83134 10.6442 5.57489 10.6442L 4.56083 10.6442C 4.0203 10.6442 3.58202 11.0797 3.58202 11.6167C 3.58202 12.1537 4.02021 12.5892 4.56083 12.5892L 5.57479 12.5892C 6.57694 12.5892 7.43895 11.9814 7.80692 11.1174C 9.3328 11.1224 10.7667 11.7927 11.743 12.9587L 14.1818 15.8713C 15.5349 17.4871 17.5244 18.4139 19.64 18.4139L 29.8386 18.4139C 31.5013 18.4139 32.854 17.0699 32.854 15.4179C 32.854 13.7656 31.5013 12.4217 29.8386 12.4217Z"/>
<path id="path2_fill" d="M 1.6394 0.249703C 1.23764 -0.10968 0.618695 -0.0772736 0.257075 0.321987C 0.255219 0.324025 0.246917 0.333242 0.245062 0.335377C -0.11236 0.736869 -0.0740775 1.34842 0.328949 1.7047C 0.514984 1.86916 0.747013 1.94998 0.978263 1.94998C 1.24789 1.94988 1.51654 1.84005 1.71029 1.62494L 0.984611 0.972448L 1.71215 1.62291C 2.07377 1.22374 2.04125 0.608893 1.6394 0.249703Z"/>
<path id="path3_fill" d="M 1.77441 0.398761C 1.45645 -0.0355262 0.84053 -0.128962 0.403129 0.187148C -0.0339799 0.502966 -0.130659 1.11112 0.187211 1.54551C 0.378715 1.80709 0.677055 1.94603 0.979594 1.94603C 1.1792 1.94603 1.38067 1.88558 1.55449 1.75993L 1.5624 1.75421C 1.99961 1.43839 2.09238 0.833048 1.77441 0.398761Z"/>
<path id="path4_fill" d="M 1.87946 0.572313C 1.65827 0.0853406 1.08268 -0.132192 0.591474 0.0829143C 0.101534 0.292684 -0.130008 0.855142 0.0742885 1.34677C 0.23005 1.72197 0.594793 1.94862 0.979362 1.94862C 1.10378 1.94862 1.23024 1.92485 1.35241 1.87479C 1.36227 1.87071 1.38102 1.86266 1.39079 1.85819C 1.88327 1.63727 2.10163 1.0619 1.87946 0.572313Z"/>
<path id="path5_fill" d="M 1.94576 0.773841C 1.8359 0.25029 1.32066 -0.0855182 0.794003 0.0190755C 0.268809 0.119303 -0.0790403 0.620927 0.0154908 1.14545C 0.100354 1.61622 0.512756 1.94669 0.977794 1.94669C 1.03502 1.94669 1.09322 1.94164 1.15152 1.93136C 1.16383 1.92912 1.17633 1.9267 1.18873 1.92418C 1.71763 1.81425 2.05601 1.29943 1.94576 0.773841Z"/>
<path id="path6_fill" d="M 1.94006 0.789218L 0.978931 0.972692L 1.93977 0.787471C 1.83684 0.260233 1.32317 -0.0845001 0.792505 0.0180561C 0.261842 0.120321 -0.0848359 0.630677 0.0180936 1.15791L 0.0227815 1.1812C 0.119266 1.64033 0.52737 1.9577 0.981568 1.9577C 1.04758 1.9577 1.11448 1.951 1.18157 1.93703C 1.71057 1.8272 2.05051 1.3149 1.94006 0.789218Z"/>
<path id="path7_fill" d="M 1.06557 0.00378587C 0.526802 -0.0431746 0.0521948 0.352108 0.00463633 0.887011C 0.0042457 0.891765 0.00297427 0.906028 0.0026813 0.910879C -0.0369671 1.44646 0.367622 1.91568 0.906781 1.95507C 0.93139 1.95691 0.955805 1.95769 0.980121 1.95769C 1.48783 1.95769 1.91664 1.57075 1.95444 1.05962L 0.979632 0.972491L 1.95453 1.05797C 2.00209 0.523069 1.60405 0.0510374 1.06557 0.00378587Z"/>
<path id="path8_fill" d="M 1.46463 0.125951C 0.994809 -0.139123 0.395298 0.0284415 0.128209 0.494941C -0.139076 0.961829 0.0250841 1.55543 0.49481 1.82109C 0.647641 1.90754 0.813854 1.94858 0.977916 1.94858C 1.31835 1.94858 1.6491 1.7719 1.82957 1.45685C 1.82987 1.45637 1.83495 1.44744 1.83524 1.44686C 2.10164 0.979876 1.93436 0.391026 1.46463 0.125951Z"/>
<path id="path9_fill" d="M 1.26551 0.0421268C 0.748226 -0.113988 0.201449 0.177382 0.044809 0.691424C -0.116421 1.20401 0.171176 1.74949 0.687093 1.90958C 0.78426 1.93985 0.882699 1.95411 0.979378 1.95411C 1.39617 1.95411 1.7824 1.68759 1.91326 1.27135L 1.91863 1.25407C 2.07527 0.740129 1.78289 0.197853 1.26551 0.0421268Z"/>
<path id="path10_fill" d="M 1.93316 0.755832C 1.81353 0.235483 1.29371 -0.0915895 0.768125 0.0228037C 0.240294 0.138555 -0.0932987 0.657448 0.023205 1.18197L 0.0300409 1.21117C 0.138439 1.65584 0.538634 1.95361 0.979648 1.95361C 1.05592 1.95361 1.13355 1.94469 1.211 1.92616C 1.73492 1.80022 2.05728 1.27628 1.93316 0.755832Z"/>
<path id="path11_fill" d="M 1.38569 0.0863797C 0.893312 -0.134548 0.313235 0.082887 0.0908717 0.572382L 0.0793486 0.598579C -0.133542 1.09195 0.0967315 1.66227 0.593313 1.87408C 0.718996 1.92764 0.849561 1.95306 0.978272 1.95306C 1.35698 1.95306 1.71772 1.7331 1.87788 1.36644C 2.09546 0.878304 1.87622 0.306531 1.38569 0.0863797Z"/>
<path id="path12_fill" d="M 1.18109 0.0206708C 0.652287 -0.0888712 0.133342 0.247809 0.0227956 0.773591L 0.0181085 0.796876C -0.084821 1.32411 0.261467 1.83651 0.79213 1.93877C 0.855313 1.9509 0.918399 1.95682 0.980411 1.95682C 1.4393 1.95682 1.84828 1.63586 1.9389 1.1714C 2.04945 0.64571 1.71019 0.130407 1.18109 0.0206708Z"/>
<path id="path13_fill" d="M 1.55447 0.182204C 1.11639 -0.13051 0.504962 -0.0304775 0.188947 0.403907L 0.978789 0.978105L 0.187287 0.406139C -0.130681 0.840523 -0.0340006 1.44868 0.403108 1.7646C 0.576936 1.89024 0.7784 1.95059 0.978009 1.95059C 1.28055 1.95059 1.57889 1.81175 1.77039 1.55007L 1.78094 1.53552C 2.09451 1.09939 1.99256 0.495015 1.55447 0.182204Z"/>
<path id="path14_fill" d="M 1.71167 0.32193C 1.35005 -0.0772341 0.731108 -0.109641 0.329351 0.249548C 0.329058 0.249742 0.321539 0.256535 0.321246 0.256729C -0.0800228 0.616306 -0.108441 1.22757 0.253277 1.62654C 0.44566 1.83883 0.711968 1.94633 0.979545 1.94633C 1.2147 1.94633 1.45093 1.86328 1.63882 1.69523C 2.04058 1.33594 2.07319 0.721093 1.71167 0.32193Z"/>
<path id="path15_fill" d="M 1.84251 0.497936C 1.57865 0.0292044 0.982261 -0.138262 0.510484 0.123901C 0.506773 0.125939 0.494762 0.13273 0.491149 0.134865C 0.0227902 0.402947 -0.139319 0.998297 0.130602 1.46363C 0.311852 1.77615 0.640855 1.95109 0.979331 1.95109C 1.14476 1.95109 1.31244 1.90927 1.46615 1.82127C 1.93782 1.5592 2.10638 0.966667 1.84251 0.497936Z"/>
<path id="path16_fill" d="M 1.92235 0.674536C 1.75614 0.163502 1.20702 -0.11797 0.69276 0.0473615L 0.978989 0.977353L 0.6911 0.0478464C 0.174597 0.205804 -0.115442 0.749924 0.0435425 1.26329C 0.173034 1.68137 0.560241 1.95004 0.978697 1.95004C 1.07401 1.95004 1.17098 1.93616 1.26688 1.90676C 1.27118 1.9054 1.28485 1.90123 1.28924 1.89978C 1.8036 1.73464 2.08856 1.18567 1.92235 0.674536Z"/>
<path id="path17_fill" d="M 1.95866 0.886984C 1.9112 0.352081 1.4364 -0.0430083 0.897727 0.00375813L 0.887962 0.00463163C 0.349585 0.0517861 -0.0435797 0.523331 0.00388114 1.05833C 0.0488029 1.56422 0.480346 1.94495 0.982494 1.94495C 1.0114 1.94495 1.0404 1.94369 1.0698 1.94117C 1.60808 1.89401 2.00612 1.42198 1.95866 0.886984Z"/>
<path id="path18_fill" d="M 1.95727 0.946985C 1.94144 0.410239 1.49281 -0.0149275 0.95004 0.000402607C 0.409709 0.0162178 -0.0154851 0.461079 0.000432804 0.997825L 0.979142 0.985211L 0.000432804 0.999474C 0.00834295 1.53156 0.444963 1.9576 0.978751 1.9576C 0.983634 1.9576 0.988517 1.95761 0.9934 1.95751C 1.53383 1.94965 1.96557 1.50789 1.95766 0.970854C 1.95766 0.966196 1.95736 0.951836 1.95727 0.946985Z"/>
<path id="path19_fill" d="M 5.46005 8.48606L 4.6995 8.48606L 4.20614 8.48606L 3.4455 8.48606C 2.62509 8.48606 1.95761 7.82289 1.95761 7.00768L 1.95761 5.84357C 1.95761 5.02836 2.62509 4.36519 3.4455 4.36519L 5.67743 4.36519C 6.37802 4.36519 6.94793 4.93143 6.94793 5.62749C 6.94793 6.16453 7.38612 6.59998 7.92674 6.59998C 8.46737 6.59998 8.90555 6.16462 8.90555 5.62749C 8.90555 3.859 7.4575 2.42031 5.67753 2.42031L 5.43153 2.42031L 5.43153 0.972489C 5.43153 0.435452 4.99335 -2.72411e-07 4.45272 -2.72411e-07C 3.9122 -2.72411e-07 3.47392 0.435355 3.47392 0.972489L 3.47392 2.42031L 3.4454 2.42031C 1.5457 2.4204 9.83355e-05 3.95613 9.83355e-05 5.84366L 9.83355e-05 7.00778C 9.83355e-05 8.89541 1.5458 10.431 3.4455 10.431L 4.6995 10.431C 4.70019 10.431 4.70077 10.4309 4.70136 10.4309L 5.45995 10.4309C 6.28046 10.4309 6.94793 11.0941 6.94793 11.9093L 6.94793 13.0734C 6.94793 13.8886 6.28046 14.5518 5.45995 14.5518L 3.22802 14.5518C 2.52744 14.5518 1.95761 13.9856 1.95761 13.2895C 1.95761 12.7526 1.51943 12.317 0.978806 12.317C 0.43828 12.317 -1.19209e-08 12.7525 -1.19209e-08 13.2895C -1.19209e-08 15.0581 1.44804 16.4967 3.22792 16.4967L 3.47392 16.4967L 3.47392 17.9444C 3.47392 18.4814 3.9121 18.9169 4.45272 18.9169C 4.99325 18.9169 5.43153 18.4815 5.43153 17.9444L 5.43153 16.4967L 5.46005 16.4967C 7.35995 16.4967 8.90555 14.961 8.90555 13.0734L 8.90555 11.9093C 8.90555 10.0217 7.35985 8.48606 5.46005 8.48606Z"/>
<path id="path20_fill" d="M 31.8753 8.96333C 31.3348 8.96333 30.8965 9.39868 30.8965 9.93582L 30.8965 16.436L 27.2792 16.436C 27.0228 16.436 26.8142 16.2287 26.8142 15.9739L 26.8142 8.19877C 26.8142 7.94398 27.0228 7.73673 27.2792 7.73673L 28.2217 7.73673C 28.7622 7.73673 29.2005 7.30138 29.2005 6.76424C 29.2005 6.22721 28.7623 5.79175 28.2217 5.79175L 27.2792 5.79175C 26.2646 5.79175 25.3942 6.41495 25.034 7.29624C 23.513 7.28741 22.0845 6.61803 21.111 5.45537L 18.6721 2.54266C 17.3191 0.926789 15.3298 -2.66489e-08 13.2139 -2.66489e-08L 3.01542 -2.66489e-08C 1.35273 -2.66489e-08 -1.90734e-07 1.344 -1.90734e-07 2.99596C -1.90734e-07 4.64792 1.35273 5.99192 3.01542 5.99192L 7.18573 5.99192C 7.72625 5.99192 8.16454 5.55656 8.16454 5.01943C 8.16454 4.48239 7.72635 4.04694 7.18573 4.04694L 3.01542 4.04694C 2.43212 4.04694 1.95752 3.5754 1.95752 2.99586C 1.95752 2.41633 2.43212 1.94478 3.01542 1.94478L 13.214 1.94478C 14.7464 1.94478 16.1873 2.6161 17.1674 3.78643L 19.6062 6.69904C 20.9148 8.26193 22.8192 9.17737 24.8568 9.23607L 24.8568 14.9618L 21.2642 14.9618C 19.4921 14.9618 17.8139 14.2883 16.5389 13.0655L 11.2751 8.01723C 10.9039 7.66125 10.8866 7.06522 11.2365 6.68847C 11.593 6.30463 12.1985 6.2796 12.586 6.63248L 16.7187 10.3964C 17.1172 10.7593 17.7363 10.7327 18.1016 10.3367C 18.4669 9.94086 18.44 9.32572 18.0416 8.96275L 13.9089 5.19903C 12.7283 4.12388 10.8843 4.20034 9.79813 5.3695C 8.73221 6.51673 8.78495 8.33237 9.91561 9.41673L 15.1794 14.465C 16.8212 16.0395 18.9822 16.9068 21.2641 16.9068L 25.0461 16.9068C 25.4136 17.772 26.2761 18.3807 27.2791 18.3807L 31.8752 18.3807C 32.4158 18.3807 32.854 17.9454 32.854 17.4083L 32.854 9.93572C 32.8541 9.39869 32.416 8.96333 31.8753 8.96333Z"/>
<path id="path21_fill" d="M 0.978807 1.94498C 1.51939 1.94498 1.95761 1.50958 1.95761 0.972489C 1.95761 0.435399 1.51939 0 0.978807 0C 0.438227 0 0 0.435399 0 0.972489C 0 1.50958 0.438227 1.94498 0.978807 1.94498Z"/>
</defs>
</svg>
