<svg width="50" height="50" viewBox="0 0 50 50" version="1.1" xmlns="http://www.w3.org/2000/svg" xmlns:xlink="http://www.w3.org/1999/xlink">
<title>laptop (1)</title>
<desc>Created using Figma</desc>
<g id="Canvas" transform="translate(-363 -1954)">
<g id="laptop (1)">
<g id="Group">
<g id="Group">
<g id="Vector">
<use xlink:href="#path0_fill" transform="translate(363 1954)" fill="#FFFFFF"/>
</g>
</g>
</g>
<g id="Group">
<g id="Group">
<g id="Vector">
<use xlink:href="#path1_fill" transform="translate(370.733 1971.02)" fill="#FFFFFF"/>
</g>
</g>
</g>
<g id="Group">
<g id="Group">
<g id="Vector">
<use xlink:href="#path2_fill" transform="translate(387.016 1963.33)" fill="#FFFFFF"/>
</g>
</g>
</g>
<g id="Group">
<g id="Group">
<g id="Vector">
<use xlink:href="#path3_fill" transform="translate(407.631 1992.06)" fill="#FFFFFF"/>
</g>
</g>
</g>
<g id="Group">
<g id="Group">
<g id="Vector">
<use xlink:href="#path4_fill" transform="translate(384.457 1981.11)" fill="#FFFFFF"/>
</g>
</g>
</g>
<g id="Group">
<g id="Group">
<g id="Vector">
<use xlink:href="#path5_fill" transform="translate(389.456 1980.89)" fill="#FFFFFF"/>
</g>
</g>
</g>
</g>
</g>
<defs>
<path id="path0_fill" d="M 49.0163 41.9723L 29.2454 41.9723C 28.7021 41.9723 28.2615 42.4096 28.2615 42.9488C 28.2615 43.8461 27.5261 44.5761 26.6221 44.5761L 23.3525 44.5761C 22.4485 44.5761 21.713 43.8461 21.713 42.9488C 21.713 42.4096 21.2724 41.9723 20.7291 41.9723L 5.36875 41.9723L 5.36875 16.8784C 5.36875 15.7564 6.2885 14.8436 7.4189 14.8436L 19.6896 14.8436L 19.6986 14.9291L 17.6542 16.8441C 17.6474 16.8506 17.6405 16.8572 17.6338 16.8638C 15.847 18.6375 14.8629 20.9957 14.8629 23.5038L 14.8629 27.8645C 14.8629 28.2503 15.0918 28.6 15.4471 28.7568C 15.5754 28.8135 15.7116 28.841 15.8467 28.841C 16.0857 28.841 16.3216 28.7546 16.506 28.5896L 20.8114 24.7339C 20.9354 24.9443 21.136 25.1064 21.3812 25.1783C 22.5374 25.5173 23.7349 25.6912 24.9405 25.6953C 24.9549 25.6953 24.9695 25.6954 24.9841 25.6954C 26.204 25.6954 27.4159 25.5215 28.5865 25.1783C 28.8387 25.1043 29.0432 24.9341 29.1661 24.7142L 33.4942 28.59C 33.6787 28.7551 33.9145 28.8415 34.1535 28.8415C 34.2886 28.8415 34.4248 28.814 34.5531 28.7573C 34.9083 28.6006 35.1373 28.2508 35.1373 27.8649L 35.1373 23.5043C 35.1373 20.9961 34.1532 18.638 32.3664 16.8643L 30.4756 14.9876L 30.4939 14.8434L 42.5813 14.8434C 43.7117 14.8434 44.6315 15.7562 44.6315 16.8782L 44.6315 34.7829C 44.6315 35.3222 45.072 35.7595 45.6154 35.7595C 46.1587 35.7595 46.5993 35.3222 46.5993 34.7829L 46.5993 16.8784C 46.5993 14.6794 44.7968 12.8904 42.5813 12.8904L 30.7214 12.8904C 31.0661 8.44717 29.5615 4.05664 26.5287 0.736426L 26.3557 0.547266C 26.0377 0.199023 25.5848 0 25.1117 0C 25.1075 0 25.1033 0 25.0992 0C 24.6215 0.00351562 24.1665 0.209766 23.851 0.565723L 23.525 0.933301C 20.6186 4.21143 19.1621 8.54639 19.4924 12.8904L 7.419 12.8904C 5.20345 12.8904 3.40105 14.6794 3.40105 16.8784L 3.40105 41.9723L 0.983899 41.9723C 0.44059 41.9723 3.84711e-09 42.4096 3.84711e-09 42.9488L 3.84711e-09 44.4713C 3.84711e-09 47.5198 2.49891 50 5.57015 50L 44.4297 50C 47.5012 50 50 47.5199 50 44.4714L 50 42.9488C 50.0002 42.4095 49.5596 41.9723 49.0163 41.9723ZM 29.6939 21.1383L 30.1638 17.4406L 30.9748 18.2455C 32.3901 19.6503 33.1695 21.518 33.1695 23.5045L 33.1695 25.6687L 29.5321 22.4114L 29.6939 21.1383ZM 25.0023 2.22363L 25.1149 2.09668C 27.9105 5.18506 29.2131 9.31396 28.6893 13.4354L 28.4631 15.2155C 28.463 15.2163 28.4628 15.217 28.4627 15.2177L 27.5155 22.6727C 27.5155 22.6728 27.5155 22.6728 27.5155 22.6729L 27.4148 23.4659C 26.6181 23.6495 25.8035 23.7423 24.9842 23.7423C 24.9719 23.7423 24.9596 23.7423 24.9473 23.7422C 24.1456 23.7395 23.3481 23.6479 22.5685 23.4694L 21.7933 16.043L 21.7061 15.2076C 21.7061 15.2075 21.7061 15.2074 21.706 15.2072L 21.4898 13.1367C 21.0773 9.18428 22.3575 5.20654 25.0023 2.22363ZM 20.4783 22.4016L 16.8307 25.6682L 16.8307 23.5039C 16.8307 21.522 17.6066 19.6583 19.0155 18.2547L 19.9538 17.3757L 20.4783 22.4016ZM 44.4299 48.0469L 5.57015 48.0469C 3.58376 48.0469 1.9677 46.4429 1.9677 44.4713L 1.9677 43.9254L 19.8814 43.9254C 20.3106 45.4266 21.7041 46.5292 23.3523 46.5292L 26.6219 46.5292C 28.27 46.5292 29.6635 45.4266 30.0928 43.9254L 48.0321 43.9254L 48.0321 44.4714L 48.0323 44.4714C 48.0324 46.4429 46.4163 48.0469 44.4299 48.0469Z"/>
<path id="path1_fill" d="M 33.8802 -8.34465e-08L 28.927 -8.34465e-08C 28.3837 -8.34465e-08 27.9431 0.437305 27.9431 0.976562C 27.9431 1.51582 28.3837 1.95312 28.927 1.95312L 32.8963 1.95312L 32.8963 20.8731L 1.9678 20.8731L 1.9678 1.95312L 5.08853 1.95312C 5.63184 1.95312 6.07243 1.51582 6.07243 0.976562C 6.07243 0.437305 5.63184 -8.34465e-08 5.08853 -8.34465e-08L 0.983899 -8.34465e-08C 0.44059 -8.34465e-08 -3.24283e-07 0.437305 -3.24283e-07 0.976562L -3.24283e-07 21.8497C -3.24283e-07 22.389 0.44059 22.8263 0.983899 22.8263L 33.8801 22.8263C 34.4234 22.8263 34.864 22.389 34.864 21.8497L 34.864 0.976562C 34.8641 0.437305 34.4235 -8.34465e-08 33.8802 -8.34465e-08Z"/>
<path id="path2_fill" d="M 0.9839 1.95312C 1.52729 1.95312 1.9678 1.5159 1.9678 0.976562C 1.9678 0.437222 1.52729 0 0.9839 0C 0.440507 0 0 0.437222 0 0.976562C 0 1.5159 0.440507 1.95312 0.9839 1.95312Z"/>
<path id="path3_fill" d="M 0.9839 1.95312C 1.52729 1.95312 1.9678 1.5159 1.9678 0.976561C 1.9678 0.437221 1.52729 0 0.9839 0C 0.440507 0 0 0.437221 0 0.976561C 0 1.5159 0.440507 1.95312 0.9839 1.95312Z"/>
<path id="path4_fill" d="M 0.9839 9.53674e-08C 0.44059 9.53674e-08 1.08094e-07 0.437305 1.08094e-07 0.976563L 1.08094e-07 4.95166C 1.08094e-07 5.49092 0.44059 5.92822 0.9839 5.92822C 1.52721 5.92822 1.9678 5.49101 1.9678 4.95166L 1.9678 0.976563C 1.9678 0.437305 1.52731 9.53674e-08 0.9839 9.53674e-08Z"/>
<path id="path5_fill" d="M 0.9839 7.62939e-07C 0.440591 7.62939e-07 8.88776e-07 0.437305 8.88776e-07 0.976563L 8.88776e-07 6.83848C 8.88776e-07 7.37774 0.440591 7.81504 0.9839 7.81504C 1.52721 7.81504 1.9678 7.37783 1.9678 6.83848L 1.9678 0.976563C 1.9678 0.437305 1.52721 7.62939e-07 0.9839 7.62939e-07Z"/>
</defs>
</svg>
