<svg width="50" height="36" viewBox="0 0 50 36" version="1.1" xmlns="http://www.w3.org/2000/svg" xmlns:xlink="http://www.w3.org/1999/xlink">
<title>handshake</title>
<desc>Created using Figma</desc>
<g id="Canvas" transform="translate(-169 -2315)">
<g id="handshake">
<g id="Group">
<g id="Group">
<g id="Vector">
<use xlink:href="#path0_fill" transform="translate(169 2317.21)" fill="#66B5D5"/>
</g>
</g>
</g>
<g id="Group">
<g id="Group">
<g id="Vector">
<use xlink:href="#path1_fill" transform="translate(210.831 2327.13)" fill="#66B5D5"/>
</g>
</g>
</g>
<g id="Group">
<g id="Group">
<g id="Vector">
<use xlink:href="#path2_fill" transform="translate(175.119 2327.23)" fill="#66B5D5"/>
</g>
</g>
</g>
<g id="Group">
<g id="Group">
<g id="Vector">
<use xlink:href="#path3_fill" transform="translate(180.824 2315.08)" fill="#66B5D5"/>
</g>
</g>
</g>
<g id="Group">
<g id="Group">
<g id="Vector">
<use xlink:href="#path4_fill" transform="translate(205.208 2315)" fill="#66B5D5"/>
</g>
</g>
</g>
</g>
</g>
<defs>
<path id="path0_fill" d="M 49.7139 9.75714L 40.459 0.518377C 40.0776 0.137698 39.459 0.1376 39.0774 0.518377C 38.6959 0.899154 38.6959 1.51663 39.0774 1.8976L 47.6416 10.4467L 42.6343 15.445C 42.4809 15.5981 42.2314 15.5981 42.0782 15.445L 32.1905 5.57474C 32.037 5.42169 32.037 5.17261 32.1905 5.01946L 35.5509 1.66471C 35.9324 1.28393 35.9324 0.666457 35.5509 0.285583C 35.1694 -0.0951942 34.551 -0.0951942 34.1693 0.285583L 30.8088 3.64015C 30.1127 4.33512 29.9477 5.36125 30.3108 6.21492L 29.1742 7.34946L 24.7917 7.34946L 24.4463 7.34946L 21.228 7.34946L 19.7942 5.91818C 19.8493 5.71755 19.8784 5.50864 19.8784 5.29505C 19.8784 4.6692 19.6342 4.08078 19.1909 3.63829L 15.9213 0.374392C 15.5397 -0.00638493 14.9214 -0.00638493 14.5396 0.374392C 14.1582 0.755169 14.1582 1.37264 14.5396 1.75361L 17.8094 5.01751C 17.9096 5.11753 17.9246 5.23442 17.9246 5.29505C 17.9246 5.35569 17.9097 5.47257 17.8093 5.57269L 17.5372 5.84428L 7.91852 15.4437C 7.9154 15.4469 7.91276 15.4503 7.90974 15.4534C 7.81227 15.5434 7.70192 15.558 7.64343 15.558C 7.58259 15.558 7.4655 15.5431 7.3653 15.4431L 2.35836 10.4447L 11.0377 1.78071C 11.4191 1.39994 11.4191 0.782465 11.0377 0.40159C 10.6562 0.0207159 10.0379 0.0208134 9.65603 0.40159L 0.286085 9.75519C -0.0953615 10.136 -0.0953615 10.7534 0.286085 11.1343L 5.98395 16.8223C 6.44167 17.2791 7.04264 17.5074 7.64362 17.5074C 7.9196 17.5074 8.19499 17.4569 8.457 17.3605L 11.6643 20.5622C 11.4153 21.0286 11.2737 21.5602 11.2737 22.1244C 11.2737 23.9623 12.7716 25.4575 14.6127 25.4575C 14.6168 25.4575 14.6209 25.4572 14.625 25.4572C 14.625 25.4574 14.625 25.4576 14.625 25.4578C 14.625 27.2916 16.1161 28.7839 17.9516 28.7906C 17.9516 28.7921 17.9515 28.7935 17.9515 28.7949C 17.9515 30.6328 19.4493 32.128 21.2904 32.128C 21.8568 32.128 22.3905 31.9861 22.8583 31.7366L 24.0524 32.9286C 24.6121 33.4874 25.3565 33.7951 26.1481 33.7951C 26.9398 33.7951 27.6841 33.4874 28.2438 32.9286C 28.7738 32.3995 29.0783 31.7053 29.1092 30.9622C 29.8312 30.9263 30.5426 30.6339 31.0927 30.0847C 31.674 29.5044 31.9878 28.7329 31.9766 27.9125C 31.9766 27.9107 31.9765 27.9091 31.9765 27.9073C 32.8264 27.8547 33.6083 27.4829 34.1865 26.854C 34.7676 26.2221 35.0552 25.4253 35.0527 24.6304C 35.8701 24.6069 36.6348 24.2781 37.2154 23.6985C 37.821 23.094 38.1532 22.2901 38.1502 21.4351C 38.1486 20.9317 38.0302 20.4474 37.8094 20.011L 41.0135 17.0865C 41.4154 17.3668 41.8853 17.5091 42.3562 17.5091C 42.9572 17.5091 43.5583 17.2807 44.0159 16.824L 49.7137 11.1361C 50.0954 10.7554 50.0954 10.1379 49.7139 9.75714ZM 14.6128 23.5073C 13.8489 23.5073 13.2275 22.887 13.2275 22.1245C 13.2275 21.3621 13.8489 20.7418 14.6128 20.7418C 15.3766 20.7418 15.998 21.3621 15.998 22.1245C 15.9979 22.887 15.3766 23.5073 14.6128 23.5073ZM 18.9957 26.3774C 18.956 26.415 18.9172 26.4535 18.8793 26.493C 18.6349 26.7086 18.3149 26.8407 17.964 26.8407C 17.2002 26.8407 16.5788 26.2204 16.5788 25.4579C 16.5788 24.6954 17.2001 24.0751 17.964 24.0751C 18.7278 24.0751 19.3492 24.6954 19.3492 25.4579C 19.3491 25.8112 19.2146 26.1328 18.9957 26.3774ZM 22.2832 29.7576C 22.2787 29.7619 22.2739 29.7656 22.2695 29.77C 22.2647 29.7748 22.2607 29.7801 22.256 29.785C 22.0063 30.0278 21.6658 30.178 21.2906 30.178C 20.5267 30.1778 19.9053 29.5575 19.9053 28.7951C 19.9053 28.4419 20.0396 28.1203 20.2587 27.8757C 20.2984 27.8381 20.3372 27.7996 20.3751 27.7601C 20.6194 27.5445 20.9395 27.4125 21.2904 27.4125C 22.0542 27.4125 22.6757 28.0328 22.6757 28.7953C 22.6757 29.1693 22.5257 29.5084 22.2832 29.7576ZM 35.834 22.3197C 35.6001 22.553 35.2894 22.6815 34.9587 22.6815C 34.6281 22.6815 34.3173 22.553 34.0834 22.3198L 32.0539 20.2937C 31.6725 19.913 31.0541 19.913 30.6723 20.2937C 30.2908 20.6745 30.2908 21.292 30.6723 21.6729L 32.7017 23.6988C 32.7018 23.6988 32.7019 23.6989 32.7019 23.6989L 32.708 23.705C 33.2117 24.2077 33.2288 25.0115 32.7472 25.5352C 32.5052 25.7984 32.175 25.9502 31.8173 25.9627C 31.4604 25.9758 31.1196 25.8469 30.8598 25.6013L 28.9056 23.7547C 28.5137 23.3845 27.8954 23.4014 27.5245 23.7926C 27.1536 24.1837 27.1705 24.8009 27.5623 25.1712L 29.69 27.1818C 29.9006 27.3809 30.0188 27.65 30.0228 27.9395C 30.0268 28.229 29.916 28.5012 29.711 28.7059C 29.2958 29.1205 28.6198 29.1204 28.2047 28.7059L 27.2183 27.7212C 26.8367 27.3404 26.2184 27.3404 25.8366 27.7212C 25.6459 27.9117 25.5505 28.1612 25.5505 28.4107C 25.5505 28.6603 25.6459 28.91 25.8366 29.1002L 26.862 30.1238C 27.0528 30.3143 27.1579 30.5675 27.1579 30.8368C 27.1579 31.106 27.0528 31.3593 26.862 31.5497C 26.6712 31.7401 26.4176 31.8449 26.1479 31.8449C 25.878 31.8449 25.6245 31.74 25.4337 31.5496L 24.2389 30.3568C 24.4877 29.8907 24.6292 29.3593 24.6292 28.7952C 24.6292 26.9614 23.138 25.4691 21.3025 25.4624C 21.3025 25.4609 21.3026 25.4596 21.3026 25.4581C 21.3026 23.6202 19.8048 22.125 17.9637 22.125C 17.9596 22.125 17.9556 22.1253 17.9515 22.1253C 17.9515 22.1251 17.9515 22.1249 17.9515 22.1247C 17.9515 20.2868 16.4536 18.7917 14.6125 18.7917C 14.0463 18.7917 13.5128 18.9335 13.0452 19.1828L 9.99197 16.135L 18.6287 7.51333L 20.1325 9.0146C 20.3158 9.19748 20.5643 9.30023 20.8232 9.30023L 22.0877 9.30023L 18.2316 13.1495C 17.6421 13.738 17.3175 14.5207 17.3175 15.353C 17.3175 16.1853 17.6421 16.9678 18.2316 17.5563C 18.8212 18.145 19.6052 18.469 20.439 18.469C 21.2728 18.469 22.0567 18.1449 22.6463 17.5563L 25.9169 14.2914L 29.4975 14.3306L 35.8281 20.5664C 36.0646 20.7994 36.1954 21.1104 36.1964 21.442C 36.1978 21.7733 36.069 22.085 35.834 22.3197ZM 36.54 18.5272L 30.589 12.6653C 30.5889 12.6652 30.5888 12.6651 30.5887 12.665L 30.5801 12.6565C 30.3604 12.44 30.0638 12.3494 29.7792 12.3828L 25.5274 12.3363C 25.2637 12.3344 25.0117 12.4364 24.8259 12.6218L 21.2647 16.1769C 21.044 16.3972 20.7508 16.5183 20.439 16.5183C 20.1271 16.5183 19.8339 16.3972 19.6133 16.1769C 19.3927 15.9568 19.2713 15.6641 19.2713 15.3527C 19.2713 15.0413 19.3927 14.7486 19.6133 14.5284L 24.8509 9.29994L 29.579 9.29994C 29.8381 9.29994 30.0865 9.19719 30.2698 9.01431L 31.5713 7.71502L 39.6023 15.7319L 36.54 18.5272Z"/>
<path id="path1_fill" d="M 0.974905 1.94639C 1.51333 1.94639 1.94981 1.51068 1.94981 0.973195C 1.94981 0.435714 1.51333 0 0.974905 0C 0.43648 0 0 0.435714 0 0.973195C 0 1.51068 0.43648 1.94639 0.974905 1.94639Z"/>
<path id="path2_fill" d="M 0.974904 1.94639C 1.51333 1.94639 1.94981 1.51068 1.94981 0.973195C 1.94981 0.435714 1.51333 0 0.974904 0C 0.436479 0 0 0.435714 0 0.973195C 0 1.51068 0.436479 1.94639 0.974904 1.94639Z"/>
<path id="path3_fill" d="M 0.974904 1.94639C 1.51333 1.94639 1.94981 1.51067 1.94981 0.973194C 1.94981 0.435714 1.51333 0 0.974904 0C 0.436479 0 0 0.435714 0 0.973194C 0 1.51067 0.436479 1.94639 0.974904 1.94639Z"/>
<path id="path4_fill" d="M 0.974904 1.94639C 1.51333 1.94639 1.94981 1.51067 1.94981 0.973194C 1.94981 0.435714 1.51333 0 0.974904 0C 0.436479 0 0 0.435714 0 0.973194C 0 1.51067 0.436479 1.94639 0.974904 1.94639Z"/>
</defs>
</svg>
