<svg width="20" height="22" viewBox="0 0 20 22" version="1.1" xmlns="http://www.w3.org/2000/svg" xmlns:xlink="http://www.w3.org/1999/xlink">
<title>Vector</title>
<desc>Created using Figma</desc>
<g id="Canvas" transform="translate(-210 -1499)">
<g id="Vector">
<use xlink:href="#path0_stroke" transform="translate(211 1500)" fill="#66B5D5"/>
</g>
</g>
<defs>
<path id="path0_stroke" d="M 11 0L 11.7071 -0.707107C 11.3166 -1.09763 10.6834 -1.09763 10.2929 -0.707107L 11 0ZM 15 4L 15.7071 4.70711C 16.0976 4.31658 16.0976 3.68342 15.7071 3.29289L 15 4ZM 4 15L 4 16C 4.26522 16 4.51957 15.8946 4.70711 15.7071L 4 15ZM 0 15L -1 15C -1 15.5523 -0.552285 16 2.22045e-16 16L 0 15ZM 0 11L -0.707107 10.2929C -0.894643 10.4804 -1 10.7348 -1 11L 0 11ZM 0 19C -0.552285 19 -1 19.4477 -1 20C -1 20.5523 -0.552285 21 0 21L 0 19ZM 18 21C 18.5523 21 19 20.5523 19 20C 19 19.4477 18.5523 19 18 19L 18 21ZM 10.2929 0.707107L 14.2929 4.70711L 15.7071 3.29289L 11.7071 -0.707107L 10.2929 0.707107ZM 14.2929 3.29289L 3.29289 14.2929L 4.70711 15.7071L 15.7071 4.70711L 14.2929 3.29289ZM 4 14L 0 14L 0 16L 4 16L 4 14ZM 1 15L 1 11L -1 11L -1 15L 1 15ZM 0.707107 11.7071L 11.7071 0.707107L 10.2929 -0.707107L -0.707107 10.2929L 0.707107 11.7071ZM 0 21L 18 21L 18 19L 0 19L 0 21Z"/>
</defs>
</svg>
