<svg width="22" height="20" viewBox="0 0 22 20" version="1.1" xmlns="http://www.w3.org/2000/svg" xmlns:xlink="http://www.w3.org/1999/xlink">
<title>activity</title>
<desc>Created using Figma</desc>
<g id="Canvas" transform="translate(568 -1407)">
<g id="activity">
<g id="Shape">
<use xlink:href="#path0_stroke" transform="translate(-567 1408)" fill="#66B5D5"/>
</g>
</g>
</g>
<defs>
<path id="path0_stroke" d="M 20 10C 20.5523 10 21 9.55229 21 9C 21 8.44771 20.5523 8 20 8L 20 10ZM 16 9L 16 8C 15.5696 8 15.1874 8.27543 15.0513 8.68377L 16 9ZM 13 18L 12.0513 18.3162C 12.1874 18.7246 12.5696 19 13 19C 13.4304 19 13.8126 18.7246 13.9487 18.3162L 13 18ZM 7 0L 7.94868 -0.316228C 7.81257 -0.72457 7.43043 -1 7 -1C 6.56957 -1 6.18743 -0.72457 6.05132 -0.316228L 7 0ZM 4 9L 4 10C 4.43043 10 4.81257 9.72457 4.94868 9.31623L 4 9ZM 0 8C -0.552285 8 -1 8.44771 -1 9C -1 9.55229 -0.552285 10 0 10L 0 8ZM 20 8L 16 8L 16 10L 20 10L 20 8ZM 15.0513 8.68377L 12.0513 17.6838L 13.9487 18.3162L 16.9487 9.31623L 15.0513 8.68377ZM 13.9487 17.6838L 7.94868 -0.316228L 6.05132 0.316228L 12.0513 18.3162L 13.9487 17.6838ZM 6.05132 -0.316228L 3.05132 8.68377L 4.94868 9.31623L 7.94868 0.316228L 6.05132 -0.316228ZM 4 8L 0 8L 0 10L 4 10L 4 8Z"/>
</defs>
</svg>
