<svg width="22" height="22" viewBox="0 0 22 22" version="1.1" xmlns="http://www.w3.org/2000/svg" xmlns:xlink="http://www.w3.org/1999/xlink">
<title>alert-octagon</title>
<desc>Created using Figma</desc>
<g id="Canvas" transform="translate(-208 -1406)">
<g id="alert-octagon">
<g id="Shape">
<use xlink:href="#path0_stroke" transform="translate(209 1407)" fill="#66B5D5"/>
</g>
<g id="Shape">
<use xlink:href="#path1_stroke" transform="translate(219 1413)" fill="#66B5D5"/>
</g>
<g id="Rectangle">
<use xlink:href="#path2_fill" transform="translate(218 1420)" fill="#66B5D5"/>
</g>
</g>
</g>
<defs>
<path id="path0_stroke" d="M 5.86 -1C 5.30772 -1 4.86 -0.552285 4.86 0C 4.86 0.552285 5.30772 1 5.86 1L 5.86 -1ZM 14.14 0L 14.8471 -0.707107C 14.6596 -0.894643 14.4052 -1 14.14 -1L 14.14 0ZM 20 5.86L 21 5.86C 21 5.59478 20.8946 5.34043 20.7071 5.15289L 20 5.86ZM 20 14.14L 20.7071 14.8471C 20.8946 14.6596 21 14.4052 21 14.14L 20 14.14ZM 14.14 20L 14.14 21C 14.4052 21 14.6596 20.8946 14.8471 20.7071L 14.14 20ZM 5.86 20L 5.15289 20.7071C 5.34043 20.8946 5.59478 21 5.86 21L 5.86 20ZM 0 14.14L -1 14.14C -1 14.4052 -0.894643 14.6596 -0.707107 14.8471L 0 14.14ZM 0 5.86L -0.707107 5.15289C -0.894643 5.34043 -1 5.59478 -1 5.86L 0 5.86ZM 5.86 1L 14.14 1L 14.14 -1L 5.86 -1L 5.86 1ZM 13.4329 0.707107L 19.2929 6.56711L 20.7071 5.15289L 14.8471 -0.707107L 13.4329 0.707107ZM 19 5.86L 19 14.14L 21 14.14L 21 5.86L 19 5.86ZM 19.2929 13.4329L 13.4329 19.2929L 14.8471 20.7071L 20.7071 14.8471L 19.2929 13.4329ZM 14.14 19L 5.86 19L 5.86 21L 14.14 21L 14.14 19ZM 6.56711 19.2929L 0.707107 13.4329L -0.707107 14.8471L 5.15289 20.7071L 6.56711 19.2929ZM 1 14.14L 1 5.86L -1 5.86L -1 14.14L 1 14.14ZM 0.707107 6.56711L 6.56711 0.707107L 5.15289 -0.707107L -0.707107 5.15289L 0.707107 6.56711Z"/>
<path id="path1_stroke" d="M 1 0C 1 -0.552285 0.552285 -1 0 -1C -0.552285 -1 -1 -0.552285 -1 0L 1 0ZM -1 4C -1 4.55228 -0.552285 5 0 5C 0.552285 5 1 4.55228 1 4L -1 4ZM -1 0L -1 4L 1 4L 1 0L -1 0Z"/>
<path id="path2_fill" d="M 0 1C 0 0.447715 0.447715 0 1 0C 1.55228 0 2 0.447716 2 1C 2 1.55228 1.55228 2 1 2C 0.447715 2 0 1.55228 0 1Z"/>
</defs>
</svg>
