<svg width="22" height="16" viewBox="0 0 22 16" version="1.1" xmlns="http://www.w3.org/2000/svg" xmlns:xlink="http://www.w3.org/1999/xlink">
<title>Vector</title>
<desc>Created using Figma</desc>
<g id="Canvas" transform="translate(180 -1409)">
<g id="Vector">
<use xlink:href="#path0_stroke" transform="translate(-179 1410)" fill="#66B5D5"/>
</g>
</g>
<defs>
<path id="path0_stroke" d="M 11 14L 10 14C 10 14.3819 10.2176 14.7305 10.5606 14.8983C 10.9037 15.0661 11.3125 15.0238 11.6139 14.7894L 11 14ZM 20 7L 20.6139 7.78935C 20.8575 7.5999 21 7.30859 21 7C 21 6.69141 20.8575 6.4001 20.6139 6.21065L 20 7ZM 11 0L 11.6139 -0.789352C 11.3125 -1.02384 10.9037 -1.06612 10.5606 -0.898315C 10.2176 -0.730512 10 -0.381934 10 0L 11 0ZM 0 14L -1 14C -1 14.3819 -0.782448 14.7305 -0.439351 14.8983C -0.0962546 15.0661 0.31246 15.0238 0.613941 14.7894L 0 14ZM 9 7L 9.61394 7.78935C 9.85753 7.5999 10 7.30859 10 7C 10 6.69141 9.85753 6.4001 9.61394 6.21065L 9 7ZM 0 0L 0.613941 -0.789352C 0.31246 -1.02384 -0.0962546 -1.06612 -0.439351 -0.898315C -0.782448 -0.730512 -1 -0.381934 -1 0L 0 0ZM 11.6139 14.7894L 20.6139 7.78935L 19.3861 6.21065L 10.3861 13.2106L 11.6139 14.7894ZM 20.6139 6.21065L 11.6139 -0.789352L 10.3861 0.789352L 19.3861 7.78935L 20.6139 6.21065ZM 10 0L 10 14L 12 14L 12 0L 10 0ZM 0.613941 14.7894L 9.61394 7.78935L 8.38606 6.21065L -0.613941 13.2106L 0.613941 14.7894ZM 9.61394 6.21065L 0.613941 -0.789352L -0.613941 0.789352L 8.38606 7.78935L 9.61394 6.21065ZM -1 0L -1 14L 1 14L 1 0L -1 0Z"/>
</defs>
</svg>
