<svg width="18" height="22" viewBox="0 0 18 22" version="1.1" xmlns="http://www.w3.org/2000/svg" xmlns:xlink="http://www.w3.org/1999/xlink">
<title>file-text</title>
<desc>Created using Figma</desc>
<g id="Canvas" transform="translate(178 -1500)">
<g id="file-text">
<g id="Shape">
<use xlink:href="#path0_stroke" transform="translate(-177 1501)" fill="#66B5D5"/>
</g>
<g id="Shape">
<use xlink:href="#path1_stroke" transform="translate(-167 1501)" fill="#66B5D5"/>
</g>
<g id="Shape">
<use xlink:href="#path2_stroke" transform="translate(-173 1512)" fill="#66B5D5"/>
</g>
<g id="Shape">
<use xlink:href="#path2_stroke" transform="translate(-173 1516)" fill="#66B5D5"/>
</g>
<g id="Shape">
<use xlink:href="#path3_stroke" transform="translate(-173 1508)" fill="#66B5D5"/>
</g>
</g>
</g>
<defs>
<path id="path0_stroke" d="M 10 0L 10.7071 -0.707107C 10.5196 -0.894643 10.2652 -1 10 -1L 10 0ZM 16 6L 17 6C 17 5.73478 16.8946 5.48043 16.7071 5.29289L 16 6ZM 10 -1L 2 -1L 2 1L 10 1L 10 -1ZM 2 -1C 0.343146 -1 -1 0.343146 -1 2L 1 2C 1 1.44772 1.44772 1 2 1L 2 -1ZM -1 2L -1 18L 1 18L 1 2L -1 2ZM -1 18C -1 19.6569 0.343146 21 2 21L 2 19C 1.44772 19 1 18.5523 1 18L -1 18ZM 2 21L 14 21L 14 19L 2 19L 2 21ZM 14 21C 15.6569 21 17 19.6569 17 18L 15 18C 15 18.5523 14.5523 19 14 19L 14 21ZM 17 18L 17 6L 15 6L 15 18L 17 18ZM 16.7071 5.29289L 10.7071 -0.707107L 9.29289 0.707107L 15.2929 6.70711L 16.7071 5.29289Z"/>
<path id="path1_stroke" d="M 1 0C 1 -0.552285 0.552285 -1 0 -1C -0.552285 -1 -1 -0.552285 -1 0L 1 0ZM 0 6L -1 6C -1 6.55228 -0.552285 7 2.22045e-16 7L 0 6ZM 6 7C 6.55228 7 7 6.55228 7 6C 7 5.44772 6.55228 5 6 5L 6 7ZM -1 0L -1 6L 1 6L 1 0L -1 0ZM 0 7L 6 7L 6 5L 0 5L 0 7Z"/>
<path id="path2_stroke" d="M 8 1C 8.55229 1 9 0.552285 9 0C 9 -0.552285 8.55229 -1 8 -1L 8 1ZM 0 -1C -0.552285 -1 -1 -0.552285 -1 0C -1 0.552285 -0.552285 1 0 1L 0 -1ZM 8 -1L 0 -1L 0 1L 8 1L 8 -1Z"/>
<path id="path3_stroke" d="M 2 1C 2.55228 1 3 0.552285 3 0C 3 -0.552285 2.55228 -1 2 -1L 2 1ZM 0 -1C -0.552285 -1 -1 -0.552285 -1 0C -1 0.552285 -0.552285 1 0 1L 0 -1ZM 2 -1L 1 -1L 1 1L 2 1L 2 -1ZM 1 -1L 0 -1L 0 1L 1 1L 1 -1Z"/>
</defs>
</svg>
