<svg width="50" height="50" viewBox="0 0 50 50" version="1.1" xmlns="http://www.w3.org/2000/svg" xmlns:xlink="http://www.w3.org/1999/xlink">
<title>Vector</title>
<desc>Created using Figma</desc>
<g id="Canvas" transform="translate(470 -888)">
<g id="Vector">
<use xlink:href="#path0_fill" transform="translate(-470 888)" fill="#FF3A3A"/>
</g>
</g>
<defs>
<path id="path0_fill" d="M 46.923 30.1921C 46.7413 29.95 46.4564 29.8075 46.1537 29.8075L 41.298 29.8075L 41.298 24.0384L 46.1537 24.0384C 46.518 24.0384 46.8508 23.8326 47.0137 23.5068L 49.8983 17.7377C 50.1358 17.2627 49.9433 16.685 49.4682 16.4475C 48.9932 16.2101 48.4156 16.4025 48.1782 16.8775L 45.5593 22.1152L 41.2689 22.1152C 41.2538 21.8577 41.2333 21.6016 41.2065 21.3474C 41.2275 21.2456 41.2324 21.1401 41.2192 21.0347C 40.3204 13.8277 34.7693 8.18808 27.8103 6.97441L 31.3026 4.64628C 31.3338 4.62539 31.363 4.60273 31.3912 4.579C 31.3989 4.57246 31.406 4.56542 31.4133 4.55869C 31.4337 4.54033 31.4534 4.52138 31.4718 4.50156C 31.479 4.49375 31.4861 4.48584 31.493 4.47792C 31.5113 4.45693 31.5285 4.43544 31.5448 4.41318C 31.55 4.40595 31.5555 4.39892 31.5605 4.3916C 31.5804 4.36279 31.5989 4.3331 31.6154 4.30253C 31.616 4.30146 31.6167 4.30039 31.6173 4.29941C 31.6345 4.26718 31.6496 4.23398 31.6629 4.20029C 31.6663 4.1916 31.669 4.18281 31.6722 4.17412C 31.6813 4.14912 31.6894 4.12402 31.6963 4.09843C 31.6996 4.08681 31.7024 4.07509 31.7051 4.06337C 31.7109 4.03828 31.7156 4.01298 31.7194 3.9875C 31.7209 3.97714 31.7228 3.96689 31.7241 3.95644C 31.7283 3.92041 31.7308 3.88408 31.7308 3.84755C 31.7308 3.84707 31.7309 3.84668 31.7309 3.84619L 31.7309 0.961522C 31.7309 0.430468 31.3003 4.63847e-12 30.7694 4.63847e-12C 30.2384 4.63847e-12 29.8079 0.430468 29.8079 0.961522L 29.8079 3.33154L 25.0002 6.53671L 20.1926 3.33154L 20.1926 0.961522C 20.1926 0.430468 19.7622 4.63847e-12 19.2311 4.63847e-12C 18.7001 4.63847e-12 18.2696 0.430468 18.2696 0.961522L 18.2696 3.84609C 18.2696 3.84648 18.2697 3.84697 18.2697 3.84736C 18.2698 3.88388 18.2723 3.92011 18.2765 3.95634C 18.2777 3.9667 18.2797 3.97695 18.2812 3.9873C 18.285 4.01279 18.2897 4.03818 18.2956 4.06328C 18.2983 4.07509 18.3011 4.08671 18.3044 4.09834C 18.3113 4.12382 18.3194 4.14892 18.3284 4.17382C 18.3316 4.18271 18.3343 4.1915 18.3378 4.20029C 18.3511 4.23408 18.366 4.26709 18.3833 4.29921C 18.3839 4.30048 18.3848 4.30175 18.3855 4.30293C 18.4018 4.3333 18.4202 4.36259 18.44 4.3913C 18.4451 4.39882 18.4506 4.40595 18.456 4.41318C 18.4721 4.43525 18.4893 4.45673 18.5075 4.47763C 18.5145 4.48574 18.5215 4.49355 18.5289 4.50146C 18.5473 4.52119 18.5669 4.54003 18.5872 4.55839C 18.5947 4.56523 18.6018 4.57226 18.6095 4.5788C 18.6375 4.60253 18.6668 4.62529 18.698 4.64609L 22.1794 6.96699C 14.7899 8.23515 9.08015 14.4796 8.63503 22.1152L 4.4406 22.1152L 1.82176 16.8775C 1.58435 16.4026 1.00672 16.21 0.531718 16.4475C 0.0567183 16.685 -0.135762 17.2626 0.101738 17.7376L 2.9863 23.5067C 3.1492 23.8325 3.4822 24.0383 3.84627 24.0383L 8.60583 24.0383L 8.60583 29.8074L 3.84627 29.8074C 3.54363 29.8074 3.25867 29.9499 3.07703 30.192L 0.19246 34.0382C -0.126094 34.4631 -0.040059 35.0659 0.384745 35.3844C 0.557694 35.5141 0.760136 35.5767 0.960917 35.5767C 1.2532 35.5767 1.54197 35.4439 1.73094 35.1921L 4.32703 31.7306L 8.60583 31.7306L 8.60583 33.9995C 8.60583 35.9024 8.9404 37.7285 9.5527 39.4229L 5.76941 39.4229C 5.38943 39.4229 5.04509 39.6466 4.8908 39.9939L 1.04471 48.6477C 0.829081 49.133 1.04764 49.7012 1.53289 49.9169C 1.65984 49.9734 1.79236 50 1.92293 50C 2.29129 50 2.64285 49.7872 2.80213 49.4288L 6.39441 41.346L 10.3953 41.346C 13.0613 46.4823 18.4305 49.9997 24.6062 49.9997L 24.9984 49.9997L 25.0001 49.9997L 25.2977 49.9997C 31.4735 49.9997 36.8426 46.4823 39.5087 41.346L 43.6057 41.346L 47.1981 49.4288C 47.3573 49.7872 47.7088 50 48.0773 50C 48.2076 50 48.3403 49.9733 48.4673 49.9169C 48.9526 49.7013 49.171 49.133 48.9554 48.6477L 45.1093 39.9939C 44.9551 39.6467 44.6107 39.4229 44.2307 39.4229L 40.3511 39.4229C 40.9634 37.7285 41.298 35.9025 41.298 33.9995L 41.298 31.7306L 45.673 31.7306L 48.2691 35.1921C 48.458 35.4441 48.7467 35.5768 49.0391 35.5767C 49.2399 35.5767 49.4422 35.5141 49.6153 35.3844C 50.0401 35.0659 50.1261 34.4631 49.8075 34.0382L 46.923 30.1921ZM 24.0402 48.0642C 18.7517 47.854 14.2047 44.7128 11.9824 40.2238C 11.9523 40.0454 11.8734 39.8837 11.7595 39.753C 10.9692 37.9955 10.5291 36.0479 10.5291 33.9993L 10.5291 31.068C 10.5599 30.9738 10.5771 30.8734 10.5771 30.7688C 10.5771 30.6642 10.5599 30.5639 10.5291 30.4696L 10.5291 25.9612L 15.3848 25.9612C 15.9159 25.9612 16.3463 25.5307 16.3463 24.9997C 16.3463 24.4686 15.9159 24.0382 15.3848 24.0382L 10.5291 24.0382L 10.5327 22.7876C 10.5371 22.5621 10.5471 22.3381 10.5618 22.1152L 24.0849 22.1152L 24.0402 48.0642ZM 10.8658 20.1922C 12.2117 13.5507 18.0924 8.6662 24.9746 8.65409C 31.9298 8.66474 37.7464 13.6238 39.0851 20.1922L 10.8658 20.1922ZM 39.3749 33.9993C 39.3749 41.5383 33.4177 47.7116 25.9633 48.0603L 26.0081 22.1151L 39.3422 22.1151C 39.3633 22.4331 39.375 22.7535 39.375 23.0766L 39.375 33.9993L 39.3749 33.9993Z"/>
</defs>
</svg>
