<svg width="50" height="50" viewBox="0 0 50 50" version="1.1" xmlns="http://www.w3.org/2000/svg" xmlns:xlink="http://www.w3.org/1999/xlink">
<title>bug (1)</title>
<desc>Created using Figma</desc>
<g id="Canvas" transform="translate(-306 -888)">
<g id="bug (1)">
<g id="Group">
<g id="Group">
<g id="Vector">
<use xlink:href="#path0_fill" transform="translate(310.677 892.677)" fill="#27AE60"/>
</g>
</g>
</g>
<g id="Group">
<g id="Group">
<g id="Vector">
<use xlink:href="#path1_fill" transform="translate(306 888)" fill="#27AE60"/>
</g>
</g>
</g>
<g id="Group">
<g id="Group">
<g id="Vector">
<use xlink:href="#path2_fill" transform="translate(345.458 926.099)" fill="#27AE60"/>
</g>
</g>
</g>
<g id="Group">
<g id="Group">
<g id="Vector">
<use xlink:href="#path3_fill" transform="translate(317.5 899.978)" fill="#27AE60"/>
</g>
</g>
</g>
</g>
</g>
<defs>
<path id="path0_fill" d="M 26.4071 4.5247C 20.3741 -1.50823 10.5577 -1.50823 4.5247 4.5247C -1.50823 10.5577 -1.50823 20.3742 4.5247 26.4071C 7.54122 29.4236 11.5035 30.9318 15.4659 30.9318C 19.4282 30.9318 23.3905 29.4235 26.407 26.4071C 32.44 20.3741 32.44 10.5577 26.4071 4.5247ZM 25.0472 25.0471C 19.7641 30.3304 11.1678 30.3304 5.88477 25.0471C 0.601639 19.764 0.601639 11.1677 5.88477 5.88467C 8.52638 3.24306 11.9961 1.92225 15.4661 1.92225C 18.936 1.92225 22.4057 3.24296 25.0473 5.88467C 30.3304 11.1677 30.3304 19.764 25.0472 25.0471Z"/>
<path id="path1_fill" d="M 48.3594 40.4234L 40.9614 33.0254C 40.781 32.8451 40.5365 32.7438 40.2814 32.7438C 40.0263 32.7438 39.7819 32.8451 39.6014 33.0254L 36.9934 35.6334L 35.0488 33.6888C 42.2316 25.7937 42.011 13.5252 34.3855 5.89953C 30.581 2.09513 25.5227 4.63844e-12 20.1425 4.63844e-12C 14.7623 4.63844e-12 9.70404 2.09522 5.89963 5.89953C 2.09522 9.70394 0 14.7622 0 20.1425C 0 25.5227 2.09522 30.581 5.89963 34.3854C 9.70394 38.1897 14.7623 40.2849 20.1425 40.2849C 25.2009 40.2849 29.9744 38.4324 33.6893 35.0492L 35.6335 36.9934L 33.0255 39.6014C 32.65 39.9769 32.65 40.5858 33.0255 40.9613L 40.4233 48.3592C 41.5174 49.4531 42.9542 50 44.3913 50C 45.8282 50 47.2653 49.453 48.3593 48.3592C 50.5472 46.1713 50.5472 42.6113 48.3594 40.4234ZM 33.0255 33.0253C 29.5844 36.4665 25.0091 38.3617 20.1425 38.3617C 15.2758 38.3617 10.7007 36.4664 7.2595 33.0253C 3.81828 29.5842 1.92315 25.0089 1.92315 20.1424C 1.92315 15.2758 3.81828 10.7006 7.2595 7.2594C 10.7006 3.81818 15.2759 1.92305 20.1425 1.92305C 25.009 1.92305 29.5842 3.81818 33.0255 7.2594C 40.1292 14.3631 40.1292 25.9217 33.0255 33.0253ZM 46.9993 46.9993C 45.5611 48.4375 43.2212 48.4373 41.7833 46.9993L 37.8117 43.0277L 39.0598 41.7796C 39.4353 41.4041 39.4353 40.7952 39.0598 40.4197C 38.6843 40.0442 38.0756 40.0442 37.6999 40.4197L 36.4517 41.6678L 35.0652 40.2813L 37.6727 37.6738C 37.6729 37.6736 37.673 37.6735 37.6732 37.6733C 37.6734 37.6731 37.6735 37.673 37.6737 37.6728L 40.2812 35.0653L 46.9992 41.7833C 48.4374 43.2213 48.4374 45.5612 46.9993 46.9993Z"/>
<path id="path2_fill" d="M 1.90479 0.773538C 1.89239 0.712015 1.87413 0.65137 1.84913 0.593752C 1.8251 0.535061 1.7962 0.479298 1.76065 0.427443C 1.72608 0.374513 1.68575 0.325488 1.64151 0.28125C 1.59727 0.237011 1.54815 0.196584 1.49522 0.162013C 1.44327 0.127443 1.38751 0.0975592 1.32979 0.0735357C 1.2711 0.0495122 1.21055 0.0312499 1.15 0.0187499C 1.025 -0.00625022 0.89805 -0.00625022 0.774026 0.0187499C 0.712503 0.0312499 0.651858 0.0495122 0.59424 0.0735357C 0.535646 0.0975592 0.479885 0.127345 0.428029 0.162013C 0.375099 0.196584 0.325979 0.237011 0.281741 0.28125C 0.102931 0.460059 4.05313e-07 0.708205 4.05313e-07 0.961136C 4.05313e-07 1.21407 0.102931 1.46211 0.281741 1.64102C 0.325979 1.68526 0.375099 1.72569 0.428029 1.76026C 0.479982 1.79483 0.535744 1.82472 0.59424 1.84874C 0.652053 1.87276 0.712503 1.892 0.774026 1.90352C 0.835648 1.91602 0.899028 1.92276 0.961528 1.92276C 1.21544 1.92276 1.4625 1.81983 1.64141 1.64102C 1.68565 1.59678 1.72608 1.54776 1.76055 1.49483C 1.7961 1.44288 1.82501 1.38711 1.84903 1.32852C 1.87413 1.2708 1.89229 1.21026 1.90479 1.14874C 1.91739 1.08721 1.92305 1.02373 1.92305 0.961234C 1.92305 0.898734 1.91729 0.835062 1.90479 0.773538Z"/>
<path id="path3_fill" d="M 16.6073 12.4808L 14.1317 11.7147C 14.1862 11.4025 14.2163 11.082 14.2163 10.7544L 14.2163 10.6229L 16.3231 10.6229C 16.8541 10.6229 17.2847 10.1924 17.2847 9.66128C 17.2847 9.13022 16.8542 8.69966 16.3231 8.69966L 14.2163 8.69966L 14.2163 7.3894L 14.2164 7.3894L 16.6075 6.64945C 17.1148 6.49242 17.3988 5.95394 17.2419 5.44662C 17.0849 4.93929 16.5468 4.65521 16.039 4.81224L 14.1188 5.40638C 13.7547 3.9136 12.4069 2.80188 10.8036 2.80188L 10.5181 2.80188L 11.3908 1.49601C 11.6858 1.05441 11.5671 0.457338 11.1255 0.162219C 10.6838 -0.132606 10.0868 -0.014149 9.79173 0.427454L 8.68079 2.08996L 7.56984 0.427454C 7.27482 -0.014149 6.67736 -0.132899 6.23615 0.162219C 5.79445 0.45724 5.67579 1.05441 5.97081 1.49601L 6.84347 2.80188L 6.48146 2.80188C 4.87823 2.80188 3.53038 3.9135 3.16631 5.40638L 1.24609 4.81224C 0.738958 4.65521 0.200284 4.93919 0.0432523 5.44662C -0.11378 5.95394 0.170205 6.49242 0.677629 6.64945L 3.06875 7.3894L 3.06875 8.69966L 0.961908 8.69966C 0.430949 8.69966 0.00028316 9.13013 0.00028316 9.66128C 0.00028316 10.1923 0.430851 10.6229 0.961908 10.6229L 3.06875 10.6229L 3.06875 10.7544C 3.06875 11.082 3.09873 11.4026 3.15332 11.7147L 0.677727 12.4808C 0.170401 12.6379 -0.113584 13.1763 0.0433499 13.6838C 0.171085 14.0965 0.551164 14.3613 0.961713 14.3613C 1.05585 14.3613 1.15166 14.3473 1.24628 14.3181L 3.80928 13.525C 4.77218 15.1983 6.57746 16.3283 8.6427 16.3283C 10.708 16.3283 12.5132 15.1983 13.4761 13.525L 16.0391 14.3181C 16.1337 14.3474 16.2294 14.3613 16.3237 14.3613C 16.7342 14.3613 17.1143 14.0964 17.2421 13.6838C 17.3987 13.1764 17.1147 12.6379 16.6073 12.4808ZM 7.68078 14.2758C 6.13302 13.8526 4.99171 12.4347 4.99171 10.7545L 4.99171 9.36645L 7.68078 9.36645L 7.68078 14.2758ZM 12.2931 10.7545C 12.2931 12.4347 11.1518 13.8526 9.60403 14.2758L 9.60403 9.36645L 12.2931 9.36645L 12.2931 10.7545ZM 12.2931 6.67416C 12.2931 6.67728 12.2931 6.68051 12.2931 6.68353L 12.2931 7.4432L 4.99171 7.4432L 4.99171 6.68353C 4.99171 6.68031 4.99171 6.67728 4.99171 6.67416L 4.99171 6.21478C 4.99171 5.39339 5.65988 4.72523 6.48127 4.72523L 10.8036 4.72523C 11.6249 4.72523 12.2931 5.39339 12.2931 6.21478L 12.2931 6.67416Z"/>
</defs>
</svg>
