<svg width="50" height="50" viewBox="0 0 50 50" version="1.1" xmlns="http://www.w3.org/2000/svg" xmlns:xlink="http://www.w3.org/1999/xlink">
<title>target</title>
<desc>Created using Figma</desc>
<g id="Canvas" transform="translate(179 -657)">
<g id="target">
<g id="Group">
<g id="Group">
<g id="Vector">
<use xlink:href="#path0_fill" transform="translate(-135.792 681.022)" fill="#909090"/>
</g>
</g>
</g>
<g id="Group">
<g id="Group">
<g id="Vector">
<use xlink:href="#path1_fill" transform="translate(-179 657)" fill="#909090"/>
</g>
</g>
</g>
</g>
</g>
<defs>
<path id="path0_fill" d="M 1.92302 0.944964C 1.91306 0.414105 1.4741 -0.00884459 0.943434 0.000139786C 0.412575 0.0101007 -0.00978802 0.447113 0.000172913 0.97807C 0.000172913 1.50903 0.43074 1.93959 0.961697 1.93959C 1.49265 1.93959 1.92322 1.50903 1.92322 0.97807L 1.92302 0.944964Z"/>
<path id="path1_fill" d="M 45.1873 10.2521L 49.7184 5.721C 49.9886 5.45078 50.073 5.04629 49.9338 4.69053C 49.7945 4.33487 49.4579 4.09522 49.0761 4.08028L 46.0388 3.96123L 45.9197 0.924027C 45.9048 0.542191 45.6652 0.20557 45.3095 0.066312C 44.9535 -0.0732388 44.5492 0.0116245 44.279 0.281742L 39.748 4.8127C 35.4496 1.66182 30.3695 0.000101027 25 0.000101027C 18.3224 0.000101027 12.0442 2.60059 7.32236 7.32237C 2.60039 12.0441 0 18.3224 0 25C 0 31.6776 2.60049 37.9558 7.32227 42.6776C 12.0441 47.3996 18.3223 50 25 50C 31.6777 50 37.9558 47.3995 42.6776 42.6777C 47.3995 37.956 49.9999 31.6777 49.9999 25.0001C 49.9999 19.6305 48.3382 14.5504 45.1873 10.2521ZM 40.5157 6.76475C 40.516 6.76446 40.5163 6.76407 40.5166 6.76377L 44.0843 3.1961L 44.152 4.92481C 44.1717 5.42637 44.5737 5.82823 45.0752 5.84795L 46.8039 5.91573L 43.2362 9.4834C 43.2359 9.48369 43.2355 9.48399 43.2352 9.48428L 42.998 9.72149L 40.3809 9.61895L 40.2783 7.00186L 40.5157 6.76475ZM 25 48.0769C 12.2753 48.0769 1.92305 37.7247 1.92305 25C 1.92305 12.2753 12.2753 1.92315 25 1.92315C 29.8777 1.92315 34.4972 3.40762 38.4236 6.22627C 38.4208 6.23262 38.4189 6.23926 38.4162 6.24571C 38.4082 6.26465 38.4011 6.28389 38.3942 6.30332C 38.3895 6.31709 38.3847 6.33067 38.3805 6.34453C 38.3744 6.36475 38.3695 6.38526 38.3648 6.40576C 38.3618 6.41944 38.3583 6.43282 38.3558 6.44649C 38.3517 6.46905 38.349 6.49209 38.3465 6.51504C 38.3451 6.52705 38.3432 6.53887 38.3423 6.55088C 38.3397 6.58594 38.339 6.62139 38.3402 6.65684L 38.4775 10.1623L 37.8786 10.7612C 37.8773 10.7625 37.8759 10.7635 37.8747 10.7647C 37.8734 10.766 37.8724 10.7674 37.8712 10.7687L 35.8521 12.7877C 32.9638 10.2179 29.1614 8.65391 25 8.65391C 15.9867 8.65391 8.6539 15.9868 8.6539 25C 8.6539 34.0132 15.9867 41.3462 25 41.3462C 34.0133 41.3462 41.3461 34.0133 41.3461 25C 41.3461 20.8387 39.7821 17.0362 37.2122 14.1476L 38.537 12.8228C 40.9199 15.4643 42.4561 18.6918 42.9966 22.2147C 43.0695 22.6902 43.4792 23.0305 43.9458 23.0305C 43.9943 23.0305 44.0435 23.0269 44.0928 23.0193C 44.6177 22.9388 44.9778 22.448 44.8974 21.923C 44.2988 18.022 42.5971 14.4491 39.9577 11.5269L 43.3428 11.6595C 43.3554 11.66 43.368 11.6603 43.3805 11.6603C 43.397 11.6603 43.4134 11.6586 43.4297 11.6578C 43.4407 11.6572 43.4519 11.6571 43.4628 11.6562C 43.4929 11.6535 43.5227 11.6494 43.5524 11.644C 43.5567 11.6433 43.5612 11.643 43.5654 11.6421C 43.5994 11.6355 43.6328 11.6269 43.6658 11.6166C 43.675 11.6137 43.6838 11.6101 43.6929 11.6069C 43.7161 11.5989 43.7393 11.5905 43.7619 11.5807C 43.7657 11.579 43.7697 11.5779 43.7735 11.5763C 46.5923 15.5029 48.0767 20.1223 48.0767 25C 48.0768 37.7247 37.7246 48.0769 25 48.0769ZM 24.32 25.68C 24.5078 25.8677 24.7539 25.9616 24.9999 25.9616C 25.2459 25.9616 25.492 25.8677 25.6798 25.68L 30.3885 20.9714C 31.2311 22.0953 31.7307 23.4904 31.7307 25C 31.7307 28.7113 28.7112 31.7308 24.9999 31.7308C 21.2886 31.7308 18.2692 28.7113 18.2692 25C 18.2692 21.2887 21.2887 18.2692 25 18.2692C 26.5096 18.2692 27.9047 18.7689 29.0287 19.6114L 24.32 24.3201C 23.9445 24.6956 23.9445 25.3045 24.32 25.68ZM 30.3984 18.2418C 28.9174 17.0563 27.0401 16.3462 25 16.3462C 20.2283 16.3462 16.3462 20.2283 16.3462 25C 16.3462 29.7717 20.2283 33.6538 25 33.6538C 29.7717 33.6538 33.6538 29.7717 33.6538 25C 33.6538 22.9598 32.9437 21.0826 31.7582 19.6016L 35.8507 15.509C 38.0736 18.0474 39.4229 21.3689 39.4229 25C 39.4229 32.9528 32.9527 39.423 24.9999 39.423C 17.0471 39.423 10.5769 32.9529 10.5769 25C 10.5769 17.0471 17.0471 10.577 25 10.577C 28.6311 10.577 31.9526 11.9263 34.4909 14.1491L 30.3984 18.2418Z"/>
</defs>
</svg>
