<svg width="50" height="45" viewBox="0 0 50 45" version="1.1" xmlns="http://www.w3.org/2000/svg" xmlns:xlink="http://www.w3.org/1999/xlink">
<title>Group</title>
<desc>Created using Figma</desc>
<g id="Canvas" transform="translate(-209 -662)">
<g id="Group">
<g id="Vector">
<use xlink:href="#path0_fill" transform="translate(209 662.294)" fill="#909090"/>
</g>
</g>
</g>
<defs>
<path id="path0_fill" d="M 49.0234 42.7245L 44.0186 42.7245L 43.9738 21.5038C 43.9727 20.9573 43.5357 20.5152 42.9973 20.5152C 42.9966 20.5152 42.9958 20.5152 42.9952 20.5152C 42.456 20.5164 42.0196 20.9609 42.0207 21.5079L 42.0653 42.7244L 36.0026 42.7244L 35.9579 19.5399C 35.9578 19.4805 35.9517 19.4225 35.9416 19.366L 35.9416 18.2452C 35.9416 17.2631 35.7953 16.301 35.5071 15.3744C 36.5414 14.7948 37.7042 14.4893 38.911 14.4867C 38.9164 14.4867 38.9214 14.4867 38.9268 14.4867C 40.7727 14.4867 42.5078 15.1905 43.8135 16.4695C 45.1148 17.7443 45.8336 19.439 45.8374 21.2429L 45.853 25.6672C 45.855 26.2132 46.2918 26.6543 46.8295 26.6543C 46.8308 26.6543 46.8318 26.6543 46.8331 26.6543C 47.3724 26.6523 47.808 26.2072 47.8062 25.6601L 47.7905 21.2373C 47.7856 18.894 46.8551 16.6946 45.1702 15.0443C 44.2562 14.1489 43.1787 13.4756 42.0056 13.0475C 42.8513 12.1604 43.3157 10.9961 43.3131 9.75951C 43.3075 7.16155 41.2224 5.05198 38.6626 5.05198C 38.6593 5.05198 38.6559 5.05198 38.6525 5.05198C 36.0883 5.05763 34.0065 7.17839 34.0119 9.77962C 34.0146 11.0398 34.5008 12.2234 35.3811 13.1126C 35.41 13.1419 35.44 13.1694 35.4695 13.1977C 35.2179 13.3032 34.9709 13.4206 34.729 13.5495C 33.5373 11.3886 31.5918 9.7821 29.2902 8.99474C 30.2753 8.04372 30.8912 6.70259 30.8912 5.21742C 30.8912 2.34049 28.584 1.81392e-07 25.748 1.81392e-07C 22.9121 1.81392e-07 20.6049 2.34049 20.6049 5.21742C 20.6049 6.77867 21.2853 8.18082 22.36 9.13778C 20.238 9.96418 18.4479 11.4994 17.3227 13.524C 16.9808 13.3444 16.6286 13.1879 16.2681 13.0551C 17.083 12.2049 17.5863 11.0458 17.5863 9.76902C 17.5863 7.16769 15.5001 5.05138 12.9357 5.05138C 10.3714 5.05138 8.28516 7.16769 8.28516 9.76902C 8.28516 11.1146 8.84424 12.3294 9.73809 13.1896C 6.55137 14.5173 4.30898 17.6332 4.30898 21.2565L 4.30898 25.6808C 4.30898 26.228 4.74629 26.6715 5.28555 26.6715C 5.8248 26.6715 6.26211 26.228 6.26211 25.6808L 6.26211 21.2565C 6.26211 17.5236 9.36289 14.4867 13.1743 14.4867C 14.3646 14.4867 15.514 14.7818 16.5395 15.3445C 16.245 16.2803 16.0955 17.2525 16.0955 18.2452L 16.0955 25.983L 16.0955 26.662L 16.0955 42.7244L 10.2064 42.7244L 10.2064 21.5147C 10.2064 20.9675 9.76914 20.524 9.22988 20.524C 8.69063 20.524 8.25332 20.9675 8.25332 21.5147L 8.25332 42.7245L 0.976562 42.7245C 0.437305 42.7245 0 43.168 0 43.7152C 0 44.2623 0.437305 44.7058 0.976562 44.7058L 9.22998 44.7058L 49.0234 44.7058C 49.5627 44.7058 50 44.2623 50 43.7152C 50 43.168 49.5627 42.7245 49.0234 42.7245ZM 38.6567 7.03326C 38.6588 7.03326 38.6605 7.03326 38.6625 7.03326C 40.1472 7.03326 41.3567 8.257 41.36 9.76377C 41.3615 10.4947 41.0823 11.1824 40.574 11.7004C 40.0656 12.2183 39.3888 12.5044 38.6683 12.506C 38.6662 12.506 38.6644 12.506 38.6623 12.506C 37.944 12.506 37.2684 12.2229 36.7592 11.7087C 36.2485 11.193 35.9666 10.5065 35.965 9.77556C 35.9619 8.26671 37.1693 7.03653 38.6567 7.03326ZM 12.9357 12.5055C 11.4484 12.5055 10.2383 11.278 10.2383 9.76912C 10.2383 8.26027 11.4483 7.03277 12.9357 7.03277C 14.423 7.03277 15.6332 8.26027 15.6332 9.76912C 15.6332 11.278 14.423 12.5055 12.9357 12.5055ZM 25.748 1.98138C 27.507 1.98138 28.9381 3.43307 28.9381 5.21752C 28.9381 7.00196 27.507 8.45365 25.748 8.45365C 23.9891 8.45365 22.558 7.00196 22.558 5.21752C 22.558 3.43307 23.9891 1.98138 25.748 1.98138ZM 20.5688 42.7244L 18.0486 42.7244L 18.0486 30.5259C 18.7627 31.0576 19.6284 31.3991 20.5688 31.4768L 20.5688 42.7244ZM 30.6363 17.5473C 30.0971 17.5473 29.6598 17.9909 29.6598 18.538L 29.6598 42.7245L 26.851 42.7245L 26.851 30.7631C 26.851 30.216 26.4137 29.7725 25.8744 29.7725C 25.3352 29.7725 24.8979 30.216 24.8979 30.7631L 24.8979 42.7244L 22.5221 42.7244L 22.5221 18.5379C 22.5221 17.9908 22.0848 17.5472 21.5455 17.5472C 21.0063 17.5472 20.5689 17.9908 20.5689 18.5379L 20.5689 29.4854C 19.1468 29.2909 18.0487 28.0993 18.0487 26.6621L 18.0487 25.9831L 18.0487 18.2453C 18.0487 17.2313 18.2446 16.2443 18.6307 15.3115C 18.6314 15.3096 18.6321 15.3077 18.6329 15.3057C 19.8608 12.3467 22.7596 10.4348 26.0187 10.4348C 29.2937 10.4348 32.198 12.3597 33.4181 15.3384C 33.7967 16.263 33.9887 17.2409 33.9887 18.2452L 33.9887 26.662C 33.9887 28.0501 32.9643 29.2092 31.6129 29.462L 31.6129 18.538C 31.6129 17.991 31.1756 17.5473 30.6363 17.5473ZM 31.6128 42.7244L 31.6128 31.4631C 32.514 31.362 33.3412 31.0171 34.026 30.4967L 34.0496 42.7244L 31.6128 42.7244Z"/>
</defs>
</svg>
