<svg width="50" height="43" viewBox="0 0 50 43" version="1.1" xmlns="http://www.w3.org/2000/svg" xmlns:xlink="http://www.w3.org/1999/xlink">
<title>line-graph</title>
<desc>Created using Figma</desc>
<g id="Canvas" transform="translate(567 -664)">
<g id="line-graph">
<g id="Group">
<g id="Group">
<g id="Vector">
<use xlink:href="#path0_fill" transform="translate(-533.586 677.028)" fill="#909090"/>
</g>
</g>
</g>
<g id="Group">
<g id="Group">
<g id="Vector">
<use xlink:href="#path1_fill" transform="translate(-533.298 687.945)" fill="#909090"/>
</g>
</g>
</g>
<g id="Group">
<g id="Group">
<g id="Vector">
<use xlink:href="#path2_fill" transform="translate(-533.298 664)" fill="#909090"/>
</g>
</g>
</g>
<g id="Group">
<g id="Group">
<g id="Vector">
<use xlink:href="#path3_fill" transform="translate(-533.298 694.005)" fill="#909090"/>
</g>
</g>
</g>
<g id="Group">
<g id="Group">
<g id="Vector">
<use xlink:href="#path4_fill" transform="translate(-533.298 700.066)" fill="#909090"/>
</g>
</g>
</g>
<g id="Group">
<g id="Group">
<g id="Vector">
<use xlink:href="#path5_fill" transform="translate(-567 670.061)" fill="#909090"/>
</g>
</g>
</g>
</g>
</g>
<defs>
<path id="path0_fill" d="M 1.33994 -3.78849e-07C 0.601073 -3.78849e-07 1.43051e-07 0.596945 1.43051e-07 1.33074C 1.43051e-07 2.06453 0.601073 2.66147 1.33994 2.66147C 2.0788 2.66147 2.67987 2.06453 2.67987 1.33074C 2.67987 0.597042 2.0788 -3.78849e-07 1.33994 -3.78849e-07Z"/>
<path id="path1_fill" d="M 0.995991 7.10342e-08C 0.445993 7.10342e-08 -1.43051e-06 0.442933 -1.43051e-06 0.989154L -1.43051e-06 3.8704C -1.43051e-06 4.41662 0.445993 4.85955 0.995991 4.85955C 1.54599 4.85955 1.99198 4.41662 1.99198 3.8704L 1.99198 0.989154C 1.99198 0.442836 1.54609 7.10342e-08 0.995991 7.10342e-08Z"/>
<path id="path2_fill" d="M 0.995991 7.69537e-08C 0.445993 7.69537e-08 -1.43051e-06 0.442932 -1.43051e-06 0.989153L -1.43051e-06 3.87039C -1.43051e-06 4.41671 0.445993 4.85955 0.995991 4.85955C 1.54599 4.85955 1.99198 4.41662 1.99198 3.87039L 1.99198 0.989153C 1.99198 0.442932 1.54599 7.69537e-08 0.995991 7.69537e-08Z"/>
<path id="path3_fill" d="M 0.995991 1.39701e-06C 0.445993 1.39701e-06 -1.43051e-06 0.442931 -1.43051e-06 0.989152L -1.43051e-06 3.87049C -1.43051e-06 4.41671 0.445993 4.85964 0.995991 4.85964C 1.54599 4.85964 1.99198 4.41671 1.99198 3.87049L 1.99198 0.989152C 1.99198 0.443028 1.54609 1.39701e-06 0.995991 1.39701e-06Z"/>
<path id="path4_fill" d="M 0.995991 -1.13655e-06C 0.445993 -1.13655e-06 -1.43051e-06 0.442931 -1.43051e-06 0.989153L -1.43051e-06 3.87039C -1.43051e-06 4.41662 0.445993 4.85955 0.995991 4.85955C 1.54599 4.85955 1.99198 4.41662 1.99198 3.87039L 1.99198 0.989153C 1.99198 0.442834 1.54609 -1.13655e-06 0.995991 -1.13655e-06Z"/>
<path id="path5_fill" d="M 46.259 13.5123C 45.4347 13.5123 44.6723 13.779 44.0533 14.2293L 39.5425 10.6455C 39.896 9.93721 40.0958 9.14048 40.0958 8.29787C 40.0958 5.6912 38.1925 3.51931 35.6941 3.07676L 35.6941 0.989154C 35.6941 0.442932 35.2481 -1.83505e-07 34.6981 -1.83505e-07C 34.1481 -1.83505e-07 33.7021 0.442932 33.7021 0.989154L 33.7021 3.09674C 31.2589 3.58351 29.4127 5.73028 29.4127 8.29787C 29.4127 8.67747 29.4538 9.04767 29.5306 9.40486L 21.1728 13.1275C 20.4867 12.2731 19.4308 11.7239 18.2474 11.7239C 16.1846 11.7239 14.5064 13.3907 14.5064 15.4392C 14.5064 16.8613 15.3156 18.0989 16.5003 18.723L 14.7599 26.0437C 14.7552 26.0437 14.7505 26.0433 14.7458 26.0433C 12.6832 26.0433 11.0049 27.7101 11.0049 29.7586C 11.0049 29.8252 11.0069 29.8916 11.0104 29.9574L 6.89021 31.2219C 6.22439 30.1925 5.06199 29.5085 3.7412 29.5085C 1.67831 29.5087 0 31.1755 0 33.224C 0 35.2725 1.67831 36.9393 3.741 36.9393C 5.80369 36.9393 7.482 35.2725 7.482 33.224C 7.482 33.1864 7.48034 33.1493 7.47907 33.1121L 11.6439 31.8339C 12.3168 32.8227 13.4559 33.4741 14.7455 33.4741C 16.8083 33.4741 18.4865 31.8073 18.4865 29.7588C 18.4865 28.4124 17.7617 27.2312 16.6791 26.5794L 18.4455 19.1494C 20.4163 19.0465 21.9881 17.4219 21.9881 15.4394C 21.9881 15.2726 21.9759 15.1086 21.9543 14.9476L 30.3042 11.2285C 31.0761 12.3809 32.2889 13.2177 33.7019 13.4991L 33.7019 15.6939C 33.7019 16.2401 34.1479 16.683 34.6979 16.683C 35.2479 16.683 35.6939 16.2401 35.6939 15.6939L 35.6939 13.5191C 36.7019 13.3405 37.6133 12.8819 38.3416 12.2251L 42.8145 15.7787C 42.6238 16.2243 42.5181 16.714 42.5181 17.2278C 42.5181 19.2763 44.1964 20.9431 46.2591 20.9431C 48.3219 20.9431 50 19.2761 50 17.2276C 50 15.179 48.3217 13.5123 46.259 13.5123ZM 3.7412 34.9607C 2.77675 34.9607 1.99218 34.1815 1.99218 33.2237C 1.99218 32.2659 2.77675 31.4867 3.7412 31.4867C 4.70565 31.4867 5.49021 32.2659 5.49021 33.2237C 5.49021 34.1815 4.70555 34.9607 3.7412 34.9607ZM 14.7457 31.4955C 13.7814 31.4955 12.9968 30.7163 12.9968 29.7585C 12.9968 28.8007 13.7814 28.0215 14.7457 28.0215C 15.7102 28.0215 16.4948 28.8007 16.4948 29.7585C 16.4948 30.7163 15.7102 31.4955 14.7457 31.4955ZM 18.2472 17.1761C 17.2827 17.1761 16.4982 16.3969 16.4982 15.4391C 16.4982 14.4813 17.2827 13.7021 18.2472 13.7021C 19.2116 13.7021 19.9962 14.4813 19.9962 15.4391C 19.9962 16.3969 19.2116 17.1761 18.2472 17.1761ZM 34.7543 11.6245C 32.9073 11.6245 31.4046 10.1323 31.4046 8.29787C 31.4046 6.46359 32.9073 4.97118 34.7543 4.97118C 36.6012 4.97118 38.1039 6.46359 38.1039 8.29787C 38.1039 10.1322 36.6012 11.6245 34.7543 11.6245ZM 46.259 18.9645C 45.2945 18.9645 44.51 18.1853 44.51 17.2275C 44.51 16.2697 45.2945 15.4905 46.259 15.4905C 47.2234 15.4905 48.008 16.2697 48.008 17.2275C 48.008 18.1854 47.2234 18.9645 46.259 18.9645Z"/>
</defs>
</svg>
