<svg width="48" height="50" viewBox="0 0 48 50" version="1.1" xmlns="http://www.w3.org/2000/svg" xmlns:xlink="http://www.w3.org/1999/xlink">
<title>money-bag</title>
<desc>Created using Figma</desc>
<g id="Canvas" transform="translate(82 -888)">
<g id="money-bag">
<g id="Group">
<g id="Group">
<g id="Vector">
<use xlink:href="#path0_fill" transform="translate(-75.3391 926.739)" fill="#FF3A3A"/>
</g>
</g>
</g>
<g id="Group">
<g id="Group">
<g id="Vector">
<use xlink:href="#path1_fill" transform="translate(-38.1528 915.094)" fill="#FF3A3A"/>
</g>
</g>
</g>
<g id="Group">
<g id="Group">
<g id="Vector">
<use xlink:href="#path2_fill" transform="translate(-52.7089 902.379)" fill="#FF3A3A"/>
</g>
</g>
</g>
<g id="Group">
<g id="Group">
<g id="Vector">
<use xlink:href="#path3_fill" transform="translate(-82 888)" fill="#FF3A3A"/>
</g>
</g>
</g>
</g>
</g>
<defs>
<path id="path0_fill" d="M 0.970997 1.95313C 1.50726 1.95313 1.94199 1.5159 1.94199 0.976563C 1.94199 0.437222 1.50726 0 0.970997 0C 0.43473 0 0 0.437222 0 0.976563C 0 1.5159 0.43473 1.95313 0.970997 1.95313Z"/>
<path id="path1_fill" d="M 0.970996 1.95313C 1.50726 1.95313 1.94199 1.5159 1.94199 0.976563C 1.94199 0.437222 1.50726 0 0.970996 0C 0.43473 0 0 0.437222 0 0.976563C 0 1.5159 0.43473 1.95313 0.970996 1.95313Z"/>
<path id="path2_fill" d="M 4.28753 6.35762L 3.72465 6.35762L 3.35945 6.35762L 2.79657 6.35762C 2.32525 6.35762 1.9419 5.97207 1.9419 5.49805L 1.9419 4.62588C 1.94199 4.15186 2.32534 3.76631 2.79657 3.76631L 4.44843 3.76631C 4.8309 3.76631 5.14221 4.0792 5.14221 4.46397C 5.14221 5.00323 5.57702 5.44053 6.1132 5.44053C 6.64939 5.44053 7.0842 5.00323 7.0842 4.46397C 7.0842 3.02422 5.93668 1.84961 4.5131 1.81485L 4.5131 0.976564C 4.5131 0.437305 4.07828 4.29154e-07 3.5421 4.29154e-07C 3.00592 4.29154e-07 2.5711 0.437305 2.5711 0.976564L 2.5711 1.82315C 1.13422 1.93916 -2.60766e-07 3.15147 -2.60766e-07 4.62588L -2.60766e-07 5.49805C -2.60766e-07 7.04893 1.25463 8.31075 2.79667 8.31075L 3.35955 8.31075L 3.72475 8.31075L 4.28763 8.31075C 4.75895 8.31075 5.1423 8.69629 5.1423 9.17022L 5.1423 10.0425C 5.1423 10.5164 4.75895 10.902 4.28763 10.902L 2.63577 10.902C 2.25329 10.902 1.94199 10.5891 1.94199 10.2043C 1.94199 9.66504 1.50718 9.22774 0.970997 9.22774C 0.434812 9.22774 -2.60766e-07 9.66504 -2.60766e-07 10.2043C -2.60766e-07 11.6441 1.14762 12.8187 2.5711 12.8534L 2.5711 13.6917C 2.5711 14.231 3.00592 14.6683 3.5421 14.6683C 4.07828 14.6683 4.5131 14.231 4.5131 13.6917L 4.5131 12.8451C 5.94998 12.7291 7.0842 11.5169 7.0842 10.0425L 7.0842 9.17022C 7.0842 7.61934 5.82958 6.35762 4.28753 6.35762Z"/>
<path id="path3_fill" d="M 47.6826 33.1063C 47.283 32.1963 46.5549 31.4971 45.6326 31.1377C 44.7102 30.7783 43.7038 30.8015 42.7989 31.2036C 42.7941 31.2057 42.7892 31.2079 42.7846 31.21L 36.6683 34.0468C 36.1813 34.2726 35.9686 34.8528 36.1931 35.3426C 36.4177 35.8324 36.9947 36.0462 37.4816 35.8205L 43.5899 32.9874C 44.0186 32.7992 44.4946 32.7892 44.9311 32.959C 45.3698 33.13 45.716 33.4624 45.906 33.8953C 46.0961 34.3282 46.1071 34.8095 45.9372 35.2507C 45.7672 35.692 45.4366 36.0401 45.0062 36.2312L 32.49 41.7893C 30.5164 42.6657 28.2762 42.6147 26.3435 41.6491L 21.7619 39.36C 19.3113 38.1354 16.4701 38.0705 13.967 39.1823L 13.9088 39.2081L 10.5129 31.4727L 15.2347 29.3761C 17.4912 28.374 20.0089 28.2933 22.3241 29.1483L 31.5374 32.5512C 32.3603 32.8551 32.7989 33.781 32.5151 34.6151C 32.2259 35.4651 31.3022 35.9225 30.4561 35.6347L 23.3314 33.211C 22.8233 33.0382 22.2723 33.3123 22.1005 33.8232C 21.9286 34.3342 22.2012 34.8884 22.7092 35.0612L 29.8339 37.4849C 30.2106 37.6131 30.5943 37.6739 30.972 37.6739C 32.456 37.6739 33.8467 36.7345 34.3526 35.2474C 34.9753 33.4167 34.0127 31.3848 32.2068 30.7179L 22.9935 27.315C 22.3738 27.0861 21.7421 26.9132 21.1045 26.7954L 21.1045 21.3972C 21.1045 16.0746 25.4102 11.7442 30.7025 11.7442L 34.249 11.7442C 39.5414 11.7442 43.8471 16.0746 43.8471 21.3972L 43.8471 23.9423C 43.8471 24.4815 44.2819 24.9188 44.8181 24.9188C 45.3543 24.9188 45.7891 24.4815 45.7891 23.9423L 45.7891 21.3972C 45.7891 15.7604 41.7726 11.05 36.4668 10.007L 36.4668 7.06531L 38.9202 2.84441C 39.0589 2.60583 39.0906 2.31921 39.0073 2.05583C 38.924 1.79245 38.7338 1.57683 38.4835 1.46247L 35.4744 0.0874703C 35.244 -0.0178032 34.9819 -0.0284478 34.7439 0.0576851L 32.5111 0.865889L 30.5307 0.0696968C 30.303 -0.0217095 30.0494 -0.0231743 29.8207 0.0653999L 26.6719 1.28718C 26.41 1.38884 26.2046 1.59968 26.1087 1.86521C 26.0129 2.13073 26.036 2.42487 26.1723 2.67194L 28.5882 7.05349L 28.5882 9.98689C 23.2313 10.9886 19.1625 15.7236 19.1625 21.3971L 19.1625 26.608C 17.5584 26.5928 15.9561 26.9204 14.4503 27.589L 9.69337 29.7014C 9.42091 29.2913 9.03231 28.9743 8.56555 28.7925C 7.96625 28.5589 7.31229 28.5741 6.72668 28.8342L 0.581239 31.5425C 0.228087 31.6981 3.18549e-08 32.0491 3.18549e-08 32.4369L 3.18549e-08 49.0234C 3.18549e-08 49.3626 0.174974 49.6774 0.462195 49.8553C 0.617845 49.9515 0.794178 50 0.970997 50C 1.12072 50 1.27084 49.9652 1.40882 49.8951L 13.3398 43.8335C 13.9152 43.57 14.3571 43.0993 14.5858 42.5054C 14.7727 42.0201 14.7994 41.4993 14.6673 41.0061L 14.7513 40.9688C 16.725 40.0922 18.9655 40.1433 20.8978 41.109L 25.4794 43.3982C 27.9301 44.6225 30.7712 44.6872 33.2743 43.5758L 45.7905 38.0178C 46.6953 37.616 47.3906 36.8838 47.7479 35.9561C 48.1052 35.0285 48.082 34.0164 47.6826 33.1063ZM 34.5248 9.79089L 34.249 9.79089L 30.7025 9.79089L 30.5302 9.79089L 30.5302 7.77742L 34.5248 7.77742L 34.5248 9.79089ZM 28.4114 2.70544L 30.1639 2.02566L 32.1326 2.81716C 32.3532 2.90583 32.5985 2.91023 32.8219 2.82917L 35.0304 2.02966L 36.7006 2.79284L 34.9386 5.82409L 30.131 5.82409L 28.4114 2.70544ZM 12.5295 42.0584C 12.5141 42.0652 12.4989 42.0726 12.4838 42.0802L 1.94199 47.436L 1.94199 43.4786L 4.67176 42.1305C 5.15318 41.8927 5.35175 41.3075 5.11541 40.8234C 4.87897 40.3393 4.29734 40.1394 3.81582 40.3772L 1.9419 41.3026L 1.9419 33.0752L 7.50853 30.6219C 7.66146 30.5541 7.79691 30.5875 7.86401 30.6137C 7.93091 30.6398 8.05345 30.7065 8.12103 30.8605L 8.34358 31.3674C 8.34368 31.3676 8.34368 31.3678 8.34378 31.368C 8.34387 31.3682 8.34397 31.3683 8.34407 31.3685L 12.7666 41.4422C 12.8702 41.6779 12.7639 41.9543 12.5295 42.0584Z"/>
</defs>
</svg>
