<svg width="50" height="50" viewBox="0 0 50 50" version="1.1" xmlns="http://www.w3.org/2000/svg" xmlns:xlink="http://www.w3.org/1999/xlink">
<title>browser</title>
<desc>Created using Figma</desc>
<g id="Canvas" transform="translate(567 -3694)">
<g id="browser">
<g id="Group">
<g id="Group">
<g id="Vector">
<use xlink:href="#path0_fill" transform="translate(-567 3694)" fill="#66B5D5"/>
</g>
</g>
</g>
<g id="Group">
<g id="Group">
<g id="Vector">
<use xlink:href="#path1_fill" transform="translate(-542.971 3703.38)" fill="#66B5D5"/>
</g>
</g>
</g>
<g id="Group">
<g id="Group">
<g id="Vector">
<use xlink:href="#path2_fill" transform="translate(-539.745 3703.38)" fill="#66B5D5"/>
</g>
</g>
</g>
<g id="Group">
<g id="Group">
<g id="Vector">
<use xlink:href="#path3_fill" transform="translate(-563.972 3696.83)" fill="#66B5D5"/>
</g>
</g>
</g>
<g id="Group">
<g id="Group">
<g id="Vector">
<use xlink:href="#path4_fill" transform="translate(-557.375 3696.83)" fill="#66B5D5"/>
</g>
</g>
</g>
<g id="Group">
<g id="Group">
<g id="Vector">
<use xlink:href="#path5_fill" transform="translate(-550.778 3696.83)" fill="#66B5D5"/>
</g>
</g>
</g>
<g id="Group">
<g id="Group">
<g id="Vector">
<use xlink:href="#path6_fill" transform="translate(-561.783 3712.97)" fill="#66B5D5"/>
</g>
</g>
</g>
<g id="Group">
<g id="Group">
<g id="Vector">
<use xlink:href="#path7_fill" transform="translate(-561.771 3719.98)" fill="#66B5D5"/>
</g>
</g>
</g>
<g id="Group">
<g id="Group">
<g id="Vector">
<use xlink:href="#path8_fill" transform="translate(-546.462 3719.98)" fill="#66B5D5"/>
</g>
</g>
</g>
<g id="Group">
<g id="Group">
<g id="Vector">
<use xlink:href="#path9_fill" transform="translate(-543.033 3719.98)" fill="#66B5D5"/>
</g>
</g>
</g>
<g id="Group">
<g id="Group">
<g id="Vector">
<use xlink:href="#path10_fill" transform="translate(-567 3726.1)" fill="#66B5D5"/>
</g>
</g>
</g>
</g>
</g>
<defs>
<path id="path0_fill" d="M 49.9977 10.3514C 49.9976 10.0974 49.9007 9.84775 49.714 9.66104L 40.339 0.286035C 40.1521 0.0993164 39.9024 0.00253906 39.6484 0.00244141C 39.6484 0.0015625 39.6484 0.000878906 39.6484 0L 3.02109 0C 1.35527 -2.08031e-16 0 1.35527 0 3.02109L 0 40.2344C 0 40.7737 0.437207 41.2109 0.976562 41.2109L 6.73828 41.2109C 7.27764 41.2109 7.71484 40.7737 7.71484 40.2344C 7.71484 39.695 7.27764 39.2578 6.73828 39.2578L 1.95312 39.2578L 1.95312 11.3281L 21.6591 11.3281C 22.1984 11.3281 22.6356 10.8909 22.6356 10.3516C 22.6356 9.81221 22.1984 9.375 21.6591 9.375L 1.95312 9.375L 1.95312 3.02109C 1.95312 2.43223 2.43223 1.95312 3.02109 1.95312L 38.6719 1.95312L 38.6719 8.39844C 38.6719 10.0139 39.9861 11.3281 41.6016 11.3281L 48.0469 11.3281L 48.0469 39.2578L 43.0664 39.2578C 42.5271 39.2578 42.0898 39.695 42.0898 40.2344C 42.0898 40.7737 42.5271 41.2109 43.0664 41.2109L 49.0234 41.2109C 49.5628 41.2109 50 40.7737 50 40.2344L 50 10.3516C 49.9992 10.3516 49.9984 10.3514 49.9977 10.3514ZM 41.6016 9.375C 41.0631 9.375 40.625 8.93691 40.625 8.39844L 40.625 3.33418L 46.6658 9.375L 41.6016 9.375Z"/>
<path id="path1_fill" d="M 0.990138 0L 0.976563 0C 0.437208 0 6.67572e-07 0.437207 6.67572e-07 0.976562C 6.67572e-07 1.51592 0.437208 1.95312 0.976563 1.95312L 0.990138 1.95312C 1.52949 1.95312 1.9667 1.51592 1.9667 0.976562C 1.9667 0.437207 1.52949 0 0.990138 0Z"/>
<path id="path2_fill" d="M 8.16201 0L 0.976564 0C 0.437208 0 1.23978e-06 0.437207 1.23978e-06 0.976562C 1.23978e-06 1.51592 0.437208 1.95312 0.976564 1.95312L 8.16201 1.95312C 8.70137 1.95312 9.13857 1.51592 9.13857 0.976562C 9.13857 0.437207 8.70137 0 8.16201 0Z"/>
<path id="path3_fill" d="M 2.83203 0C 1.27041 0 -8.19564e-08 1.27041 -8.19564e-08 2.83203C -8.19564e-08 4.39365 1.27041 5.66406 2.83203 5.66406C 4.39365 5.66406 5.66406 4.39365 5.66406 2.83203C 5.66406 1.27041 4.39365 0 2.83203 0ZM 2.83203 3.71094C 2.34746 3.71094 1.95313 3.3166 1.95313 2.83203C 1.95313 2.34746 2.34746 1.95312 2.83203 1.95312C 3.3166 1.95312 3.71094 2.34746 3.71094 2.83203C 3.71094 3.3166 3.3166 3.71094 2.83203 3.71094Z"/>
<path id="path4_fill" d="M 2.83203 0C 1.27041 0 -2.92063e-07 1.27041 -2.92063e-07 2.83203C -2.92063e-07 4.39365 1.27041 5.66406 2.83203 5.66406C 4.39365 5.66406 5.66406 4.39365 5.66406 2.83203C 5.66406 1.27041 4.39365 0 2.83203 0ZM 2.83203 3.71094C 2.34746 3.71094 1.95312 3.3166 1.95312 2.83203C 1.95312 2.34746 2.34746 1.95312 2.83203 1.95312C 3.3166 1.95312 3.71094 2.34746 3.71094 2.83203C 3.71094 3.3166 3.3166 3.71094 2.83203 3.71094Z"/>
<path id="path5_fill" d="M 2.83203 0C 1.27041 0 -2.6226e-07 1.27041 -2.6226e-07 2.83203C -2.6226e-07 4.39365 1.27041 5.66406 2.83203 5.66406C 4.39365 5.66406 5.66406 4.39365 5.66406 2.83203C 5.66406 1.27041 4.39365 0 2.83203 0ZM 2.83203 3.71094C 2.34746 3.71094 1.95312 3.3166 1.95312 2.83203C 1.95312 2.34746 2.34746 1.95312 2.83203 1.95312C 3.3166 1.95312 3.71094 2.34746 3.71094 2.83203C 3.71094 3.3166 3.3166 3.71094 2.83203 3.71094Z"/>
<path id="path6_fill" d="M 38.5215 5.84126e-07L 0.976562 5.84126e-07C 0.437207 5.84126e-07 -7.45058e-08 0.437208 -7.45058e-08 0.976563C -7.45058e-08 1.51592 0.437207 1.95313 0.976562 1.95313L 38.5215 1.95313C 39.0608 1.95313 39.4981 1.51592 39.4981 0.976563C 39.4981 0.437208 39.0608 5.84126e-07 38.5215 5.84126e-07Z"/>
<path id="path7_fill" d="M 13.27 0L 0.976563 0C 0.437207 0 8.9407e-08 0.437207 8.9407e-08 0.976562C 8.9407e-08 1.51592 0.437207 1.95312 0.976563 1.95312L 13.27 1.95312C 13.8094 1.95312 14.2466 1.51592 14.2466 0.976562C 14.2466 0.437207 13.8094 0 13.27 0Z"/>
<path id="path8_fill" d="M 1.00127 0L 0.976563 0C 0.437208 0 6.67572e-07 0.437207 6.67572e-07 0.976562C 6.67572e-07 1.51592 0.437208 1.95312 0.976563 1.95312L 1.00127 1.95312C 1.54062 1.95312 1.97783 1.51592 1.97783 0.976562C 1.97783 0.437207 1.54062 0 1.00127 0Z"/>
<path id="path9_fill" d="M 19.7827 0L 0.976563 0C 0.437207 0 2.98023e-07 0.437207 2.98023e-07 0.976562C 2.98023e-07 1.51592 0.437207 1.95312 0.976563 1.95312L 19.7827 1.95312C 20.3221 1.95312 20.7593 1.51592 20.7593 0.976562C 20.7593 0.437207 20.3221 0 19.7827 0Z"/>
<path id="path10_fill" d="M 49.0234 15.9439L 38.5403 15.9439C 38.5258 15.7417 38.5082 15.5396 38.4848 15.3386L 41.2796 12.8141C 41.6215 12.5052 41.7011 11.9993 41.4703 11.6005L 37.8398 5.32324C 37.6095 4.9248 37.1321 4.74141 36.6942 4.88291L 33.115 6.03955C 32.2628 5.40303 31.3427 4.8709 30.3686 4.45137L 29.5804 0.771973C 29.4839 0.32168 29.0859 8.58307e-07 28.6255 8.58307e-07L 21.3747 8.58307e-07C 20.9142 8.58307e-07 20.5162 0.32168 20.4198 0.771973L 19.6316 4.45137C 18.6575 4.8709 17.7374 5.40313 16.8852 6.03955L 13.306 4.88291C 12.868 4.74141 12.3906 4.9248 12.1604 5.32324L 8.52988 11.6005C 8.29912 11.9993 8.37871 12.5052 8.72061 12.8141L 11.5154 15.3386C 11.492 15.5396 11.4744 15.7417 11.4599 15.9439L 0.976562 15.9439C 0.437207 15.9439 0 16.3812 0 16.9205C 0 17.4599 0.437207 17.8971 0.976562 17.8971L 49.0234 17.8971C 49.5628 17.8971 50 17.4599 50 16.9205C 50 16.3812 49.5628 15.9439 49.0234 15.9439ZM 21.0749 15.9439C 21.5143 14.1855 23.1074 12.8791 25 12.8791C 26.8926 12.8791 28.4857 14.1855 28.9251 15.9439L 21.0749 15.9439ZM 30.917 15.9439C 30.4475 13.1014 27.9736 10.926 25 10.926C 22.0264 10.926 19.5525 13.1013 19.083 15.9439L 17.7649 15.9439C 18.2457 12.3794 21.3059 9.62168 25 9.62168C 28.6941 9.62168 31.7544 12.3794 32.2351 15.9439L 30.917 15.9439ZM 36.4828 15.1106C 36.526 15.3862 36.5582 15.6647 36.5816 15.944L 34.204 15.944C 33.7127 11.2996 29.7726 7.66865 25 7.66865C 20.2274 7.66865 16.2873 11.2996 15.796 15.944L 13.4184 15.944C 13.4418 15.6647 13.474 15.3862 13.5172 15.1106C 13.5682 14.785 13.4516 14.4557 13.2069 14.2348L 10.6159 11.8943L 13.4559 6.98398L 16.7761 8.05693C 17.0903 8.1585 17.4345 8.09434 17.691 7.88662C 18.6393 7.11865 19.695 6.5082 20.8288 6.07207C 21.1367 5.95361 21.364 5.6877 21.4331 5.36514L 22.1641 1.95313L 27.8358 1.95313L 28.5668 5.36514C 28.6359 5.6877 28.8633 5.95361 29.1711 6.07207C 30.3049 6.5082 31.3606 7.11865 32.3089 7.88662C 32.5654 8.09424 32.9096 8.1583 33.2238 8.05693L 36.544 6.98398L 39.384 11.8943L 36.793 14.2348C 36.5484 14.4557 36.4317 14.7851 36.4828 15.1106Z"/>
</defs>
</svg>
