<svg width="45" height="50" viewBox="0 0 45 50" version="1.1" xmlns="http://www.w3.org/2000/svg" xmlns:xlink="http://www.w3.org/1999/xlink">
<title>browser (1)</title>
<desc>Created using Figma</desc>
<g id="Canvas" transform="translate(-212 -3694)">
<g id="browser (1)">
<g id="Group">
<g id="Group">
<g id="Vector">
<use xlink:href="#path0_fill" transform="translate(214.765 3696.61)" fill="#66B5D5"/>
</g>
</g>
</g>
<g id="Group">
<g id="Group">
<g id="Vector">
<use xlink:href="#path1_fill" transform="translate(220.559 3696.61)" fill="#66B5D5"/>
</g>
</g>
</g>
<g id="Group">
<g id="Group">
<g id="Vector">
<use xlink:href="#path2_fill" transform="translate(226.355 3696.61)" fill="#66B5D5"/>
</g>
</g>
</g>
<g id="Group">
<g id="Group">
<g id="Vector">
<use xlink:href="#path3_fill" transform="translate(212 3694)" fill="#66B5D5"/>
</g>
</g>
</g>
<g id="Group">
<g id="Group">
<g id="Vector">
<use xlink:href="#path4_fill" transform="translate(215.947 3716.94)" fill="#66B5D5"/>
</g>
</g>
</g>
<g id="Group">
<g id="Group">
<g id="Vector">
<use xlink:href="#path5_fill" transform="translate(244.926 3723.1)" fill="#66B5D5"/>
</g>
</g>
</g>
<g id="Group">
<g id="Group">
<g id="Vector">
<use xlink:href="#path6_fill" transform="translate(244.926 3732.28)" fill="#66B5D5"/>
</g>
</g>
</g>
<g id="Group">
<g id="Group">
<g id="Vector">
<use xlink:href="#path7_fill" transform="translate(244.926 3713.93)" fill="#66B5D5"/>
</g>
</g>
</g>
<g id="Group">
<g id="Group">
<g id="Vector">
<use xlink:href="#path8_fill" transform="translate(241.291 3713.93)" fill="#66B5D5"/>
</g>
</g>
</g>
<g id="Group">
<g id="Group">
<g id="Vector">
<use xlink:href="#path9_fill" transform="translate(241.291 3737.75)" fill="#66B5D5"/>
</g>
</g>
</g>
<g id="Group">
<g id="Group">
<g id="Vector">
<use xlink:href="#path10_fill" transform="translate(215.947 3706.3)" fill="#66B5D5"/>
</g>
</g>
</g>
<g id="Group">
<g id="Group">
<g id="Vector">
<use xlink:href="#path11_fill" transform="translate(233.523 3702.35)" fill="#66B5D5"/>
</g>
</g>
</g>
</g>
</g>
<defs>
<path id="path0_fill" d="M 2.55392 2.98023e-09C 1.14563 2.98023e-09 1.76862e-07 1.13896 1.76862e-07 2.53906C 1.76862e-07 3.93916 1.14563 5.07812 2.55392 5.07812C 3.9622 5.07812 5.10783 3.93916 5.10783 2.53906C 5.10783 1.13896 3.9622 2.98023e-09 2.55392 2.98023e-09ZM 2.55392 3.125C 2.22888 3.125 1.96455 2.86221 1.96455 2.53906C 1.96455 2.21592 2.22888 1.95312 2.55392 1.95312C 2.87895 1.95312 3.14328 2.21592 3.14328 2.53906C 3.14328 2.86221 2.87895 3.125 2.55392 3.125Z"/>
<path id="path1_fill" d="M 2.55392 2.98023e-09C 1.14563 2.98023e-09 3.41734e-07 1.13896 3.41734e-07 2.53906C 3.41734e-07 3.93916 1.14563 5.07812 2.55392 5.07812C 3.9622 5.07812 5.10783 3.93916 5.10783 2.53906C 5.10783 1.13896 3.9622 2.98023e-09 2.55392 2.98023e-09ZM 2.55392 3.125C 2.22888 3.125 1.96455 2.86221 1.96455 2.53906C 1.96455 2.21592 2.22888 1.95312 2.55392 1.95312C 2.87895 1.95312 3.14328 2.21592 3.14328 2.53906C 3.14328 2.86221 2.87895 3.125 2.55392 3.125Z"/>
<path id="path2_fill" d="M 2.55392 2.98023e-09C 1.14563 2.98023e-09 -5.15599e-07 1.13896 -5.15599e-07 2.53906C -5.15599e-07 3.93916 1.14563 5.07812 2.55392 5.07812C 3.9622 5.07812 5.10783 3.93916 5.10783 2.53906C 5.10783 1.13896 3.9622 2.98023e-09 2.55392 2.98023e-09ZM 2.55392 3.125C 2.22888 3.125 1.96455 2.86221 1.96455 2.53906C 1.96455 2.21592 2.22888 1.95312 2.55392 1.95312C 2.87895 1.95312 3.14328 2.21592 3.14328 2.53906C 3.14328 2.86221 2.87895 3.125 2.55392 3.125Z"/>
<path id="path3_fill" d="M 42.2683 0L 2.73171 0C 1.22549 0 5.24592e-08 1.21836 5.24592e-08 2.71582L 5.24592e-08 49.0234C 5.24592e-08 49.5627 0.439863 50 0.982275 50L 44.0177 50C 44.5601 50 45 49.5627 45 49.0234L 45 2.71582C 45 1.21836 43.7745 0 42.2683 0ZM 43.0354 8.34844L 25.3943 8.34844C 24.8519 8.34844 24.412 8.78574 24.412 9.325C 24.412 9.86426 24.8519 10.3016 25.3943 10.3016L 43.0354 10.3016L 43.0354 48.0469L 1.96455 48.0469L 1.96455 10.3015L 19.5075 10.3015C 20.0499 10.3015 20.4898 9.86416 20.4898 9.3249C 20.4898 8.78564 20.0499 8.34834 19.5075 8.34834L 1.96455 8.34834L 1.96455 2.71582C 1.96455 2.29521 2.30864 1.95312 2.73171 1.95312L 42.2683 1.95312C 42.6914 1.95312 43.0354 2.29521 43.0354 2.71582L 43.0354 8.34844Z"/>
<path id="path4_fill" d="M 21.8081 -4.29153e-07L 0.982276 -4.29153e-07C 0.439863 -4.29153e-07 1.61874e-07 0.437304 1.61874e-07 0.976562L 1.61874e-07 10.6071C 1.61874e-07 11.1464 0.439863 11.5837 0.982276 11.5837L 21.8081 11.5837C 22.3505 11.5837 22.7904 11.1464 22.7904 10.6071L 22.7904 0.976562C 22.7904 0.437207 22.3505 -4.29153e-07 21.8081 -4.29153e-07ZM 20.8258 9.63057L 1.96455 9.63057L 1.96455 1.95312L 20.8258 1.95312L 20.8258 9.63057Z"/>
<path id="path5_fill" d="M 6.48302 5.72205e-07L 0.982275 5.72205e-07C 0.439863 5.72205e-07 4.79627e-08 0.437305 4.79627e-08 0.976563L 4.79627e-08 6.44531C 4.79627e-08 6.98457 0.439863 7.42188 0.982275 7.42188L 6.48302 7.42188C 7.02543 7.42188 7.46529 6.98457 7.46529 6.44531L 7.46529 0.976563C 7.46529 0.437305 7.02543 5.72205e-07 6.48302 5.72205e-07ZM 5.50074 5.46875L 1.96455 5.46875L 1.96455 1.95313L 5.50074 1.95313L 5.50074 5.46875Z"/>
<path id="path6_fill" d="M 6.48302 0L 0.982275 0C 0.439863 0 4.79627e-08 0.437305 4.79627e-08 0.976562L 4.79627e-08 6.44531C 4.79627e-08 6.98457 0.439863 7.42188 0.982275 7.42188L 6.48302 7.42188C 7.02543 7.42188 7.46529 6.98457 7.46529 6.44531L 7.46529 0.976562C 7.46529 0.437305 7.02543 0 6.48302 0ZM 5.50074 5.46875L 1.96455 5.46875L 1.96455 1.95312L 5.50074 1.95312L 5.50074 5.46875Z"/>
<path id="path7_fill" d="M 6.48302 3.45707e-07L 0.982275 3.45707e-07C 0.439863 3.45707e-07 4.79627e-08 0.437305 4.79627e-08 0.976563L 4.79627e-08 6.44531C 4.79627e-08 6.98457 0.439863 7.42187 0.982275 7.42187L 6.48302 7.42187C 7.02543 7.42187 7.46529 6.98457 7.46529 6.44531L 7.46529 0.976563C 7.46529 0.437207 7.02543 3.45707e-07 6.48302 3.45707e-07ZM 5.50074 5.46875L 1.96455 5.46875L 1.96455 1.95313L 5.50074 1.95313L 5.50074 5.46875Z"/>
<path id="path8_fill" d="M 0.982275 3.45707e-07C 0.439863 3.45707e-07 4.79627e-08 0.437305 4.79627e-08 0.976563L 4.79627e-08 21.2829C 4.79627e-08 21.8222 0.439765 22.2595 0.982275 22.2595C 1.52469 22.2595 1.96455 21.8222 1.96455 21.2829L 1.96455 0.976563C 1.96455 0.437305 1.52469 3.45707e-07 0.982275 3.45707e-07Z"/>
<path id="path9_fill" d="M 1.67674 0.286132C 1.49404 0.104394 1.24062 0 0.982277 0C 0.723938 0 0.470511 0.104394 0.287807 0.286132C 0.105202 0.467773 1.43888e-06 0.719727 1.43888e-06 0.976562C 1.43888e-06 1.2334 0.105104 1.48535 0.287807 1.66689C 0.470511 1.84854 0.723938 1.95312 0.982277 1.95312C 1.24062 1.95312 1.49404 1.84863 1.67674 1.66689C 1.85935 1.48535 1.96455 1.2334 1.96455 0.976562C 1.96455 0.719727 1.85945 0.467773 1.67674 0.286132Z"/>
<path id="path10_fill" d="M 35.4617 3.45707e-07L 0.982275 3.45707e-07C 0.439863 3.45707e-07 1.61874e-07 0.437305 1.61874e-07 0.976563L 1.61874e-07 4.88281C 1.61874e-07 5.42207 0.439863 5.85938 0.982275 5.85938L 35.4617 5.85938C 36.0041 5.85938 36.444 5.42207 36.444 4.88281L 36.444 0.976563C 36.444 0.437207 36.0041 3.45707e-07 35.4617 3.45707e-07ZM 34.4794 3.90625L 1.96455 3.90625L 1.96455 1.95313L 34.4794 1.95313L 34.4794 3.90625Z"/>
<path id="path11_fill" d="M 0.994454 5.96046e-09L 0.982275 5.96046e-09C 0.439862 5.96046e-09 -5.03608e-07 0.437305 -5.03608e-07 0.976562C -5.03608e-07 1.51582 0.439764 1.95312 0.982275 1.95312L 0.994454 1.95312C 1.53687 1.95312 1.97673 1.51582 1.97673 0.976562C 1.97673 0.437305 1.53687 5.96046e-09 0.994454 5.96046e-09Z"/>
</defs>
</svg>
